<svg xmlns="http://www.w3.org/2000/svg" width="39.39" height="53.063" viewBox="0 0 39.39 53.063">
  <g id="Group_273" data-name="Group 273" transform="translate(-1493.362 -3441.785)">
    <path id="Path_12" data-name="Path 12" d="M-1979.539-542.638c.913.156,1.833.277,2.737.472a24.127,24.127,0,0,1,9.959,4.931c.7.558,1.373,1.156,2.041,1.755s.743,1.274.25,1.806a1.22,1.22,0,0,1-1.826-.1,25.356,25.356,0,0,0-7.9-5.2,19.268,19.268,0,0,0-14.9.311,26.324,26.324,0,0,0-7.862,4.99,1.208,1.208,0,0,1-1.791.089,1.2,1.2,0,0,1,.208-1.777,27.945,27.945,0,0,1,14.149-7.042c.54-.092,1.084-.16,1.625-.239Z" transform="translate(3494.674 3984.423)" fill="#2d3d46"/>
    <path id="Path_13" data-name="Path 13" d="M-1967.869-439.995a9.886,9.886,0,0,1,8.32,4.683,11.932,11.932,0,0,1,1.379,4.887c.546,4.308,1.052,8.621,1.674,12.918a24.178,24.178,0,0,0,1.885,6.158,1.177,1.177,0,0,1-.577,1.684,1.113,1.113,0,0,1-1.51-.7c-.653-1.865-1.353-3.723-1.851-5.631a64.569,64.569,0,0,1-1.386-9.245c-.253-2.294-.5-4.6-.91-6.864-.669-3.663-3.715-5.064-6.154-5.422-3.989-.584-7.346,1.675-8.8,5.91a30.273,30.273,0,0,0-.926,4.916,43.852,43.852,0,0,1-3.441,11.918,11.2,11.2,0,0,1-1.42,2.145,1.143,1.143,0,0,1-1.77.154,1.173,1.173,0,0,1,.1-1.779,9.8,9.8,0,0,0,1.818-3.454,53.254,53.254,0,0,0,2.686-11.492c.469-3.638,1.857-6.851,4.992-9.052A10.107,10.107,0,0,1-1967.869-439.995Z" transform="translate(3481.384 3895.989)" fill="#2d3d46"/>
    <path id="Path_14" data-name="Path 14" d="M-1948.228-400.1a26.978,26.978,0,0,1-1.033,5.862,79.566,79.566,0,0,1-7.266,17.854,15.476,15.476,0,0,1-1.114,1.681,1.118,1.118,0,0,1-1.6.265,1.15,1.15,0,0,1-.265-1.609,55.35,55.35,0,0,0,5.386-10.916,58.079,58.079,0,0,0,3.165-10.2,10.8,10.8,0,0,0,.263-4.257,3.5,3.5,0,0,0-2.075-2.831,2.63,2.63,0,0,0-3.214.936,9.912,9.912,0,0,0-1.554,4.018c-.372,1.91-.587,3.852-1.015,5.748a32.214,32.214,0,0,1-3.719,8.772c-.835,1.466-1.793,2.862-2.735,4.264a1.1,1.1,0,0,1-1.51.364,1.159,1.159,0,0,1-.537-1.379,2.484,2.484,0,0,1,.342-.573,39.377,39.377,0,0,0,5.546-10.814,35.21,35.21,0,0,0,.929-4.757,18.7,18.7,0,0,1,1.927-6.393,5.034,5.034,0,0,1,3.676-2.673,5.248,5.248,0,0,1,5.47,2.722A8,8,0,0,1-1948.228-400.1Z" transform="translate(3467.081 3867.389)" fill="#2d3d46"/>
    <path id="Path_15" data-name="Path 15" d="M-1975.191-467.228a1.264,1.264,0,0,1-.616,1.216,1.137,1.137,0,0,1-1.3-.128c-.85-.619-1.677-1.276-2.566-1.833a13.956,13.956,0,0,0-6.529-2.245,11.322,11.322,0,0,0-9.489,3.939,15.1,15.1,0,0,0-3.765,8.351,35.951,35.951,0,0,1-1.967,8.693,7.548,7.548,0,0,1-1.886,2.933,1.131,1.131,0,0,1-1.947-.536,1.2,1.2,0,0,1,.193-.954,9.549,9.549,0,0,0,2.3-5c.462-2.153.719-4.349,1.162-6.506,1.113-5.423,3.884-9.675,9.01-12.076,3.948-1.85,7.94-1.523,11.862.207a20.455,20.455,0,0,1,5,3.188A3.281,3.281,0,0,1-1975.191-467.228Z" transform="translate(3499.968 3924.098)" fill="#2d3d46"/>
    <path id="Path_16" data-name="Path 16" d="M-1906.232-505.385a19.667,19.667,0,0,1,11.626,3.823,19.078,19.078,0,0,1,5.965,8.118,32.1,32.1,0,0,1,1.935,7.058,2.192,2.192,0,0,1-.063,1.01,1.056,1.056,0,0,1-1.171.654,1.2,1.2,0,0,1-1.011-1.03c-.337-1.511-.605-3.043-1.047-4.524a17.861,17.861,0,0,0-6.027-9.371,15.372,15.372,0,0,0-7.975-3.136,19.677,19.677,0,0,0-6.38.293,1.138,1.138,0,0,1-1.4-.911,1.071,1.071,0,0,1,.892-1.341C-1909.339-505-1907.783-505.176-1906.232-505.385Z" transform="translate(3419.426 3952.327)" fill="#2d3d46"/>
    <path id="Path_17" data-name="Path 17" d="M-1934.337-370.968a40.856,40.856,0,0,1-7.649,21.7c-.452.609-.942,1.19-1.436,1.766a1.145,1.145,0,0,1-1.725.222,1.152,1.152,0,0,1-.032-1.742,35.435,35.435,0,0,0,7.864-17.276c.311-1.708.45-3.448.631-5.177.089-.856.522-1.34,1.281-1.3C-1934.7-372.744-1934.29-372.211-1934.337-370.968Z" transform="translate(3448.51 3838.08)" fill="#2d3d46"/>
    <path id="Path_18" data-name="Path 18" d="M-1873.11-271.143c-.4.975-.737,1.836-1.1,2.687a43.369,43.369,0,0,1-4,7.458,1.884,1.884,0,0,1-.909.678,1,1,0,0,1-1.153-.5,1.106,1.106,0,0,1,0-1.267c.389-.631.8-1.247,1.183-1.883a60.12,60.12,0,0,0,4.915-11.132c.063-.179.127-.357.194-.534a1.157,1.157,0,0,1,1.2-.862,1.159,1.159,0,0,1,1.086,1c.364,1.523.629,3.078,1.111,4.563.529,1.63,1.261,3.194,1.892,4.793a2.318,2.318,0,0,1,.241.925,1.038,1.038,0,0,1-.864.974,1.147,1.147,0,0,1-1.333-.647,24.587,24.587,0,0,1-2.186-5.285C-1872.913-270.451-1872.993-270.732-1873.11-271.143Z" transform="translate(3392.432 3755.124)" fill="#2d3d46"/>
    <path id="Path_19" data-name="Path 19" d="M-2014.822-473.548c.479-4.758,1.922-9.125,5.21-12.731a15.125,15.125,0,0,1,5.56-3.956,1.2,1.2,0,0,1,1.529.36,1.147,1.147,0,0,1-.633,1.79,13.145,13.145,0,0,0-5.3,4.017,18.073,18.073,0,0,0-3.656,8.171c-.167.861-.254,1.738-.384,2.607-.134.9-.61,1.354-1.312,1.275S-2014.877-472.644-2014.822-473.548Z" transform="translate(3508.189 3939.381)" fill="#2d3d46"/>
    <path id="Path_20" data-name="Path 20" d="M-1782.4-388.1a1.156,1.156,0,0,1-.871,1.187,1.035,1.035,0,0,1-1.293-.584,17.4,17.4,0,0,1-1.137-3.569c-.363-2.556-.533-5.139-.761-7.713a24.983,24.983,0,0,0-1.361-7.334,1.149,1.149,0,0,1,.619-1.547,1.151,1.151,0,0,1,1.528.673,16.994,16.994,0,0,1,1.26,5.2c.28,2.882.472,5.773.747,8.655a12.45,12.45,0,0,0,1.148,4.582,1.126,1.126,0,0,1,.088.241A1.835,1.835,0,0,1-1782.4-388.1Z" transform="translate(3312.691 3868.208)" fill="#2d3d46"/>
  </g>
</svg>
