<svg xmlns="http://www.w3.org/2000/svg" width="53.78" height="51.917" viewBox="0 0 53.78 51.917">
  <g id="Group_2054" data-name="Group 2054" transform="translate(448 -236.41)">
    <path id="Path_8742" data-name="Path 8742" d="M-448,257.213a2.076,2.076,0,0,1,2.111-1.485c.3-.009.59-.071.886-.106a.719.719,0,0,0,.716-.471.72.72,0,0,0-.174-.835c-.3-.365-.591-.738-.871-1.119a1.774,1.774,0,0,1,.114-2.356c.669-.716,1.365-1.408,2.076-2.084a1.779,1.779,0,0,1,2.314-.142c.413.294.8.62,1.2.932a.717.717,0,0,0,1.247-.515c.063-.433.106-.868.158-1.3a1.838,1.838,0,0,1,1.925-1.755c.893-.01,1.786-.012,2.679,0a1.773,1.773,0,0,1,1.836,1.54c.1.515.132,1.041.206,1.56a.719.719,0,0,0,1.2.5c.362-.276.716-.562,1.08-.835.153-.115.317-.29.484-.3.78-.046.908-.643,1.137-1.206a17.418,17.418,0,0,1,16.824-10.82,17.455,17.455,0,0,1,16.461,14.85,17.369,17.369,0,0,1-11.958,19.146l-.371.119c1.124.655,1.042,1.694,1.027,2.714-.009.665,0,1.331,0,2a1.965,1.965,0,0,1-1.874,2.125c-.572.079-1.146.14-1.718.219a.931.931,0,0,0-.55,1.279c.377.505.778.992,1.153,1.5a1.91,1.91,0,0,1-.17,2.62q-1.061,1.093-2.152,2.156a1.911,1.911,0,0,1-2.659.169c-.476-.357-.938-.732-1.411-1.093a.912.912,0,0,0-1.352.543c-.093.623-.152,1.251-.245,1.874a1.9,1.9,0,0,1-1.907,1.681c-1.05.018-2.1.016-3.152,0a1.888,1.888,0,0,1-1.913-1.612c-.118-.654-.179-1.317-.274-1.975a.915.915,0,0,0-1.317-.524c-.486.372-.962.759-1.454,1.124a1.909,1.909,0,0,1-2.62-.169Q-430.4,284.1-431.464,283a1.931,1.931,0,0,1-.172-2.662c.357-.476.73-.94,1.09-1.414a.9.9,0,0,0-.53-1.345q-.806-.112-1.614-.2a2,2,0,0,1-1.953-2.162c0-1.032,0-2.064,0-3.173-.529,0-1.031,0-1.532,0a1.847,1.847,0,0,1-2.052-1.841q-.057-.548-.13-1.095c-.115-.872-.655-1.1-1.344-.568-.347.267-.687.543-1.038.8a1.808,1.808,0,0,1-2.478-.148q-.96-.934-1.895-1.894a1.809,1.809,0,0,1-.159-2.557c.306-.4.629-.8.932-1.2a.716.716,0,0,0-.451-1.094,8.128,8.128,0,0,0-1.092-.146,2.173,2.173,0,0,1-2.12-1.409Zm39.93,8.6a12.516,12.516,0,0,0,5.392-3.223c.479-.479.916-.529,1.279-.167s.313.8-.162,1.279a13.389,13.389,0,0,1-6.267,3.665,2.742,2.742,0,0,0-1.923,1.334.934.934,0,0,0-.123.632c.028.1.378.163.566.135a15.8,15.8,0,0,0,13.244-18.638,15.788,15.788,0,0,0-23.285-10.774,15.368,15.368,0,0,0-8.01,13.013,15.243,15.243,0,0,0,2.887,9.888,3.9,3.9,0,0,0,.419.431,1.233,1.233,0,0,0,.11-.231c.078-.59.172-1.179.215-1.772a1.315,1.315,0,0,0-.144-.69,14.1,14.1,0,0,1-1.545-9.444,14.113,14.113,0,0,1,16.743-11.228,14.044,14.044,0,0,1,10.766,17.031,23.477,23.477,0,0,1-1.437,3.7.741.741,0,0,1-1.053.388.786.786,0,0,1-.321-1.123c.043-.1.092-.189.141-.281a12.452,12.452,0,0,0,1.359-7.724,12.536,12.536,0,0,0-13.688-10.648,12.509,12.509,0,0,0-10.8,15.42c.229.951.631,1.861.948,2.775a3.764,3.764,0,0,1,.706-.174c1.259-.013,2.522-.064,3.777.011a1.779,1.779,0,0,1,1.6,1.626c.093.623.153,1.251.245,1.874a.9.9,0,0,0,1.348.552c.473-.361.937-.734,1.412-1.093a1.931,1.931,0,0,1,2.663.165c.614.6,1.236,1.193,1.814,1.827C-408.8,264.776-408.482,265.269-408.07,265.814Zm-1.72.257a2.906,2.906,0,0,0-.255-.355c-.664-.673-1.34-1.334-2-2.011-.268-.276-.5-.237-.774-.014-.613.494-1.247.963-1.861,1.455a.935.935,0,0,1-1.115.117,7.446,7.446,0,0,0-1.3-.549,1.072,1.072,0,0,1-.84-1.059c-.069-.731-.18-1.458-.258-2.189-.04-.377-.206-.56-.606-.553q-1.365.023-2.731,0c-.433-.008-.577.2-.617.6-.078.765-.2,1.526-.281,2.291a.942.942,0,0,1-.7.873,12.526,12.526,0,0,0-1.4.583.939.939,0,0,1-1.115-.113c-.613-.494-1.248-.961-1.86-1.456a.515.515,0,0,0-.813.048q-.945.985-1.93,1.932a.512.512,0,0,0-.046.811c.5.611.963,1.246,1.455,1.862a.934.934,0,0,1,.113,1.115,7.306,7.306,0,0,0-.546,1.3,1.072,1.072,0,0,1-1.06.839c-.714.068-1.424.175-2.137.247-.421.042-.615.22-.6.672q.041,1.285,0,2.573c-.016.486.157.692.65.731.749.06,1.491.2,2.239.275a.944.944,0,0,1,.874.7,13.06,13.06,0,0,0,.579,1.4.94.94,0,0,1-.11,1.115c-.493.614-.957,1.251-1.454,1.862a.512.512,0,0,0,.043.811q.984.946,1.93,1.932a.508.508,0,0,0,.808.055c.61-.5,1.246-.963,1.86-1.456a.945.945,0,0,1,1.115-.118c.47.229.961.417,1.452.6a.891.891,0,0,1,.649.8c.087.8.208,1.6.3,2.4.042.379.2.558.6.549.892-.019,1.786-.027,2.678,0,.451.015.632-.167.675-.593.073-.731.184-1.458.255-2.189a1.045,1.045,0,0,1,.824-1.014,5.212,5.212,0,0,0,1.16-.479,1.1,1.1,0,0,1,1.429.167c.542.469,1.136.876,1.691,1.331a.507.507,0,0,0,.809-.037q.944-.986,1.93-1.932a.514.514,0,0,0,.058-.811c-.507-.625-.987-1.272-1.485-1.9a.9.9,0,0,1-.116-1.025c.227-.491.433-.992.623-1.5a.892.892,0,0,1,.793-.655c.8-.088,1.6-.212,2.4-.3.388-.041.555-.212.55-.606-.013-.893-.02-1.786,0-2.678.012-.439-.155-.639-.589-.681-.749-.073-1.494-.181-2.241-.263a1,1,0,0,1-.941-.769,9.287,9.287,0,0,0-.565-1.352.943.943,0,0,1,.11-1.116c.493-.614.97-1.241,1.449-1.866A4.748,4.748,0,0,0-409.79,266.07ZM-428.6,250.212c-.568.436-1.012.769-1.447,1.115a.9.9,0,0,1-1.026.107,8.72,8.72,0,0,0-1.207-.506,1.019,1.019,0,0,1-.782-.989c-.066-.644-.163-1.285-.225-1.929-.03-.313-.139-.474-.485-.467-.805.017-1.611.013-2.416,0-.307,0-.436.115-.468.421-.074.713-.184,1.423-.266,2.135a.9.9,0,0,1-.657.8c-.425.157-.849.325-1.258.52a.957.957,0,0,1-1.118-.126c-.53-.43-1.084-.831-1.61-1.265a.414.414,0,0,0-.667.038c-.544.57-1.1,1.13-1.671,1.671-.268.254-.239.444-.019.709.435.525.835,1.08,1.26,1.614a.923.923,0,0,1,.108,1.073,7.355,7.355,0,0,0-.487,1.158,1.042,1.042,0,0,1-1.026.809c-.644.061-1.285.158-1.929.225-.293.03-.436.143-.43.462.015.823.012,1.646,0,2.469,0,.285.109.4.392.435.73.081,1.457.194,2.186.279a.868.868,0,0,1,.757.629,13.454,13.454,0,0,0,.519,1.258.97.97,0,0,1-.132,1.161c-.421.515-.806,1.059-1.23,1.571a.437.437,0,0,0,.037.71q.84.793,1.634,1.634a.439.439,0,0,0,.71.053c.539-.446,1.106-.858,1.654-1.293a.887.887,0,0,1,1.025-.1,12.171,12.171,0,0,0,1.257.522.956.956,0,0,1,.708.874c.074.678.185,1.353.248,2.032.031.327.149.459.488.451.787-.018,1.576-.021,2.363,0,.358.01.5-.119.526-.473.052-.627.159-1.25.217-1.877a1.017,1.017,0,0,1,.8-1.029,2.818,2.818,0,0,0,.361-.144,2.162,2.162,0,0,1,.73-2.59c.659-.6,1.262-1.263,1.9-1.885a1.89,1.89,0,0,1,2.037-.439c.1.034.213.058.374.1A17.639,17.639,0,0,1-428.6,250.212Zm-3.118,19.941c.437-.093.9.121,1.126-.4.332-.757.32-.82-.418-1.513-.17.155-.446.287-.5.482A10.354,10.354,0,0,0-431.717,270.153Z" fill="#2d3d46"/>
    <path id="Path_8746" data-name="Path 8746" d="M-216.429,298.9c0,.858.012,1.716-.007,2.573a.5.5,0,0,0,.351.544,2.726,2.726,0,0,1,1.435,3.434,2.716,2.716,0,0,1-3.264,1.693.561.561,0,0,0-.662.218c-.583.676-1.181,1.339-1.781,2-.437.482-.9.545-1.27.191s-.319-.77.1-1.248c.581-.655,1.156-1.314,1.75-1.957a.486.486,0,0,0,.1-.638,2.677,2.677,0,0,1,1.325-3.7.541.541,0,0,0,.345-.6c-.008-1.681-.006-3.361,0-5.042,0-.678.268-1.013.786-1.01s.788.353.791,1.02C-216.425,297.219-216.429,298.059-216.429,298.9Zm-.771,4.449a1.164,1.164,0,0,0-1.194,1.139,1.194,1.194,0,0,0,1.165,1.182,1.159,1.159,0,0,0,1.153-1.126A1.133,1.133,0,0,0-217.2,303.349Z" transform="translate(-194.385 -50.673)" fill="#2d3d46"/>
    <path id="Path_8747" data-name="Path 8747" d="M-286.2,460.545a5.95,5.95,0,0,1,5.921,5.592,5.907,5.907,0,0,1-5.1,6.236,8.661,8.661,0,0,1-1.772-.009c-.616-.047-.928-.4-.876-.885.055-.512.446-.766,1.1-.668a4.236,4.236,0,0,0,3.9-1.332,4.358,4.358,0,0,0-.022-5.994,4.368,4.368,0,0,0-5.987-.32,4.366,4.366,0,0,0-.672,5.96c.084.112.179.216.261.329a.792.792,0,0,1-.086,1.163.775.775,0,0,1-1.118-.153,5.853,5.853,0,0,1-1.407-2.831A5.97,5.97,0,0,1-286.2,460.545Z" transform="translate(-133.953 -192.667)" fill="#2d3d46"/>
    <path id="Path_8748" data-name="Path 8748" d="M-382.919,364.332a5.4,5.4,0,0,1-4.034,5.255,5.412,5.412,0,0,1-6.089-2.62,5.41,5.41,0,0,1,1.021-6.548c.5-.47.974-.51,1.32-.111.308.354.257.79-.172,1.2a3.819,3.819,0,0,0-1.23,3.312,3.833,3.833,0,0,0,3.911,3.363,3.809,3.809,0,0,0,3.692-3.763,3.8,3.8,0,0,0-3.458-3.871c-.14-.01-.281-.008-.418-.031a.792.792,0,0,1-.718-.826.779.779,0,0,1,.854-.733A5.381,5.381,0,0,1-382.919,364.332Z" transform="translate(-46.662 -105.341)" fill="#2d3d46"/>
  </g>
</svg>
