<svg width="20" height="15" viewBox="0 0 20 15" fill="none" xmlns="http://www.w3.org/2000/svg">
<path d="M18.3715 7.4V1H9.68573H1V7.4V13.8H9.68573" stroke="#114F69" stroke-width="2" stroke-linecap="round" stroke-linejoin="round"/>
<path d="M1 1L9.68573 7.4L18.3715 1" stroke="#114F69" stroke-width="2" stroke-linecap="round" stroke-linejoin="round"/>
<path d="M11.1376 11.1039C11.2237 11.0113 11.3392 10.9606 11.4589 10.9628C11.5785 10.9651 11.9168 11.0081 12 11.1039L13.2149 12.4917L14.5 10.9628L16.2393 9.00043C16.3261 8.91732 16.7484 8.99517 16.8627 9.00043C16.977 9.00569 17.0853 9.05913 17.1656 9.14992C17.2459 9.24072 17.2922 9.36209 17.2951 9.48946C17.2981 9.61683 17.2574 9.74069 17.1814 9.83595L13.5308 13.8548C13.4467 13.9474 13.3332 13.9996 13.2149 14H13.2109C13.1513 13.9996 13.0924 13.9861 13.0376 13.9602C12.9828 13.9343 12.9331 13.8966 12.8914 13.8493L11.1268 11.8142C11.0436 11.7184 10.998 11.5898 11.0001 11.4566C11.0021 11.3234 11.0516 11.1965 11.1376 11.1039ZM19 9.15127L17.1656 10.9628L15.6673 12.5337L15.812 12.6461C15.7709 12.5984 15.7218 12.5602 15.6673 12.5337C15.6129 12.5072 15.5543 12.4929 15.495 12.4917C15.4356 12.4904 15.3766 12.5022 15.3213 12.5264C15.266 12.5507 15.2156 12.5868 15.1729 12.6327C15.1302 12.6787 15.0672 12.7837 15.0353 12.9863C15.0362 12.9202 15.0672 12.7837 15.0353 12.9863C15.0344 13.0525 15.0453 13.1181 15.0672 13.1796C15.0892 13.241 15.1218 13.2971 15.1632 13.3444L15.5991 13.8468C15.6408 13.8941 15.6904 13.9318 15.7453 13.9577C15.8001 13.9836 15.859 13.9971 15.9185 13.9975H15.9235C16.0418 13.9971 16.1552 13.9449 16.2393 13.8523L19.89 9.83344C19.9644 9.73775 20.0036 9.61434 19.9997 9.48787C19.9959 9.3614 19.9494 9.24119 19.8694 9.15127C19.7895 9.06135 19.682 9.00835 19.5684 9.00284C19.4549 8.99734 19.0867 9.06943 19 9.15127Z" fill="#114F69"/>
</svg>
