<svg xmlns="http://www.w3.org/2000/svg" width="51.344" height="51.347" viewBox="0 0 51.344 51.347">
  <g id="Group_279" data-name="Group 279" transform="translate(-1491.351 -4043.48)">
    <path id="Path_36" data-name="Path 36" d="M-1927.557,674.431c.211.089.427.167.631.267a2.877,2.877,0,0,1,1.765,2.692c.022,3.609.011,7.219.007,10.829a1.038,1.038,0,0,1-1.008,1.136,1.044,1.044,0,0,1-.99-1.155q-.006-5.164,0-10.328c0-1.1-.339-1.437-1.436-1.437h-35.646c-1.094,0-1.433.341-1.433,1.44v44.469c0,1.094.341,1.431,1.443,1.431h35.646c1.09,0,1.426-.341,1.427-1.447,0-2.273,0-4.546,0-6.818a1,1,0,0,1,1.346-1.056.939.939,0,0,1,.648.922c0,2.557.031,5.114-.017,7.67a2.949,2.949,0,0,1-2.739,2.721c-.217.014-.434.01-.651.01h-35.646a3.046,3.046,0,0,1-3.393-2.338c-.01-.027-.046-.045-.07-.067V676.838a3.437,3.437,0,0,1,1.227-1.808,12.951,12.951,0,0,1,1.179-.6Z" transform="translate(3459.024 3369.049)" fill="#2d3d46"/>
    <path id="Path_37" data-name="Path 37" d="M-1708.473,777.869a4.739,4.739,0,0,1-.666,2.574q-6.18,10.711-12.371,21.416a2.536,2.536,0,0,1-.66.736c-1.981,1.479-3.978,2.937-5.965,4.407a1.127,1.127,0,0,1-1.336.217,1.1,1.1,0,0,1-.47-1.222c.283-2.521.547-5.044.837-7.564a2.145,2.145,0,0,1,.295-.789q6.174-10.715,12.364-21.42a4.173,4.173,0,0,1,5.621-1.843A3.98,3.98,0,0,1-1708.473,777.869Zm-14.419,22.354,10.117-17.524-3.806-2.2-10.119,17.524Zm11.138-19.272c.385-.69.768-1.3,1.071-1.942a2.145,2.145,0,0,0-.82-2.713,2.14,2.14,0,0,0-2.807.4,22.8,22.8,0,0,0-1.274,2.044Zm-15.951,23.215,3.335-2.459-2.877-1.654C-1727.4,801.453-1727.545,802.742-1727.7,804.167Z" transform="translate(3251.168 3282.055)" fill="#2d3d46"/>
    <path id="Path_38" data-name="Path 38" d="M-1853.394,726.8a9.223,9.223,0,0,1-9.243,9.218,9.226,9.226,0,0,1-9.206-9.256,9.226,9.226,0,0,1,9.269-9.193A9.224,9.224,0,0,1-1853.394,726.8Zm-3.443,4.23a7.176,7.176,0,0,0-1.217-9.815,7.217,7.217,0,0,0-10.1.966,7.02,7.02,0,0,0-.2,8.809,7.091,7.091,0,0,1,2.836-2.38,4.6,4.6,0,0,1-.691-3.148,3.655,3.655,0,0,1,3.612-3.343,3.656,3.656,0,0,1,3.591,3.418,4.342,4.342,0,0,1-.743,3.061A7.125,7.125,0,0,1-1856.837,731.025Zm-10.114,1.489a7.071,7.071,0,0,0,8.655-.005,4.8,4.8,0,0,0-4.23-2.49A4.852,4.852,0,0,0-1866.95,732.515Zm5.939-6.458c0-1.1-.552-1.824-1.438-1.89a1.575,1.575,0,0,0-1.747,1.355c-.219,1.182.213,2.121,1.123,2.374a1.72,1.72,0,0,0,.781.035C-1861.431,727.752-1861.012,727.113-1861.012,726.057Z" transform="translate(3375.231 3331.333)" fill="#2d3d46"/>
    <path id="Path_39" data-name="Path 39" d="M-1868.518,892.025c-2.337,0-4.674,0-7.011,0a1.009,1.009,0,0,1-1.078-.842.988.988,0,0,1,.673-1.1,1.638,1.638,0,0,1,.493-.057q6.935,0,13.871,0c.736,0,1.184.382,1.188.994s-.447,1-1.176,1.006Q-1865.037,892.029-1868.518,892.025Z" transform="translate(3379.407 3180.537)" fill="#2d3d46"/>
    <path id="Path_40" data-name="Path 40" d="M-1868.543,936.736c-2.3,0-4.607.008-6.911-.01a1.646,1.646,0,0,1-.839-.234.864.864,0,0,1-.339-1.021.97.97,0,0,1,.814-.721,2.324,2.324,0,0,1,.4-.016h13.722c.067,0,.134,0,.2,0a1.006,1.006,0,0,1,1.064,1.018.994.994,0,0,1-1.049.979c-.768.013-1.536,0-2.3,0Z" transform="translate(3379.458 3141.443)" fill="#2d3d46"/>
    <path id="Path_41" data-name="Path 41" d="M-1868.489,981.453h-6.76a3.534,3.534,0,0,1-.5-.015,1,1,0,0,1-.859-1.01,1,1,0,0,1,.857-.963,1.283,1.283,0,0,1,.2-.012q7.061,0,14.121,0a.99.99,0,0,1,1.058,1.021.991.991,0,0,1-1.056.972C-1863.782,981.458-1866.135,981.453-1868.489,981.453Z" transform="translate(3379.398 3102.341)" fill="#2d3d46"/>
    <path id="Path_42" data-name="Path 42" d="M-1802.6,1024.147c.85,0,1.7-.006,2.551,0a1.008,1.008,0,0,1,1.111,1.017,1,1,0,0,1-1.1.98q-2.6.011-5.2,0a1,1,0,0,1-1.111-1.017,1,1,0,0,1,1.1-.98C-1804.363,1024.141-1803.48,1024.147-1802.6,1024.147Z" transform="translate(3317.96 3063.262)" fill="#2d3d46"/>
    <path id="Path_43" data-name="Path 43" d="M-1908.81,891.038a.992.992,0,0,1-.969,1.006,1.038,1.038,0,0,1-1.031-1.015,1.038,1.038,0,0,1,1.014-.981A.992.992,0,0,1-1908.81,891.038Z" transform="translate(3409.304 3180.514)" fill="#2d3d46"/>
    <path id="Path_44" data-name="Path 44" d="M-1908.809,935.748a.99.99,0,0,1-.966,1.009,1.037,1.037,0,0,1-1.035-1.011,1.037,1.037,0,0,1,1.011-.984A.991.991,0,0,1-1908.809,935.748Z" transform="translate(3409.303 3141.418)" fill="#2d3d46"/>
    <path id="Path_45" data-name="Path 45" d="M-1908.812,980.475a.991.991,0,0,1-.981.994,1.039,1.039,0,0,1-1.018-.978,1.037,1.037,0,0,1,1.027-1.018A.991.991,0,0,1-1908.812,980.475Z" transform="translate(3409.305 3102.323)" fill="#2d3d46"/>
  </g>
</svg>
