<svg width="22" height="22" viewBox="0 0 22 22" fill="none" xmlns="http://www.w3.org/2000/svg">
<path d="M22 11.0004C22.0001 8.45544 21.1177 5.98922 19.5033 4.02193C17.8889 2.05464 15.6423 0.708007 13.1463 0.211445C10.6503 -0.285116 8.05932 0.0991255 5.81487 1.29873C3.57043 2.49833 1.81142 4.43904 0.837458 6.79021C-0.136502 9.14138 -0.26512 11.7575 0.473566 14.1929C1.21225 16.6282 2.7725 18.7321 4.88848 20.146C7.00447 21.5599 9.54527 22.1965 12.0779 21.9471C14.6106 21.6977 16.9784 20.5778 18.778 18.7783C19.801 17.758 20.6122 16.5457 21.1652 15.2109C21.7181 13.8761 22.0018 12.4452 22 11.0004ZM20 11.0004C20 13.0826 19.278 15.1003 17.957 16.7099C16.6361 18.3194 14.7979 19.4212 12.7557 19.8274C10.7135 20.2336 8.59371 19.9191 6.75738 18.9375C4.92105 17.956 3.48186 16.3681 2.68505 14.4444C1.88824 12.5207 1.78312 10.3802 2.38757 8.38765C2.99201 6.39512 4.26864 4.67381 5.99993 3.51702C7.73122 2.36022 9.81003 1.83952 11.8822 2.04363C13.9544 2.24773 15.8917 3.164 17.364 4.63634C18.2012 5.47099 18.865 6.46295 19.3174 7.55513C19.7698 8.64732 20.0018 9.81819 20 11.0004ZM7.29296 8.70736L9.58599 11.0004L7.29296 13.2934C7.11081 13.482 7.01005 13.7346 7.01232 13.9968C7.0146 14.259 7.11976 14.5098 7.30517 14.6952C7.49058 14.8806 7.7414 14.9857 8.0036 14.988C8.26579 14.9903 8.51836 14.8895 8.70696 14.7074L11 12.4144L13.293 14.7074C13.4816 14.8895 13.7342 14.9903 13.9964 14.988C14.2586 14.9857 14.5094 14.8806 14.6948 14.6952C14.8802 14.5098 14.9854 14.259 14.9877 13.9968C14.9899 13.7346 14.8891 13.482 14.707 13.2934L12.414 11.0004L14.707 8.70736C14.8946 8.51985 15.0001 8.26547 15.0002 8.0002C15.0003 7.73493 14.895 7.48051 14.7075 7.29287C14.52 7.10523 14.2656 6.99975 14.0004 6.99965C13.7351 6.99956 13.4806 7.10484 13.293 7.29235L11 9.58635L8.70696 7.29235C8.51932 7.10484 8.2649 6.99956 7.99963 6.99965C7.73436 6.99975 7.47998 7.10523 7.29247 7.29287C7.10497 7.48051 6.99972 7.73493 6.99981 8.0002C6.99991 8.26547 7.10532 8.51985 7.29296 8.70736Z" fill="#95A4C9"/>
</svg>
