<svg width="22" height="22" viewBox="0 0 22 22" fill="none" xmlns="http://www.w3.org/2000/svg">
<path d="M15.2947 1.12328L1.79472 14.6233C1.67117 14.7462 1.58186 14.8992 1.53569 15.0673L0.0356851 20.5673C-0.011895 20.7394 -0.011895 20.9212 0.0356851 21.0933C0.0704069 21.2199 0.129688 21.3385 0.210246 21.4423C0.290804 21.546 0.391041 21.6329 0.505168 21.6979C0.619294 21.7629 0.745091 21.8047 0.875407 21.8211C1.00572 21.8375 1.13803 21.828 1.26469 21.7933L6.76469 20.2933C6.93281 20.2478 7.08593 20.1588 7.20866 20.0353L20.7087 6.53528C21.4266 5.81734 21.83 4.8436 21.83 3.82828C21.83 2.81296 21.4266 1.83922 20.7087 1.12128C20.3532 0.765789 19.9312 0.483801 19.4667 0.291412C19.0022 0.0990235 18.5044 0 18.0016 0C16.9863 0 16.0127 0.403336 15.2947 1.12128V1.12328ZM16.7087 2.53528C17.054 2.20443 17.5153 2.02202 17.9936 2.02716C18.4718 2.0323 18.9289 2.22457 19.2671 2.56276C19.6053 2.90095 19.7976 3.35816 19.8028 3.83641C19.8079 4.31466 19.6256 4.7759 19.2947 5.12128L5.98161 18.4333L2.42668 19.4033L3.39567 15.8483L16.7087 2.53528Z" fill="#95A4C9"/>
</svg>
