<svg xmlns="http://www.w3.org/2000/svg" width="15.85" height="15.839" viewBox="0 0 15.85 15.839">
  <g id="Group_2663" data-name="Group 2663" transform="translate(0 0)">
    <path id="Path_8980" data-name="Path 8980" d="M1432.28-973.408h-9.04a.383.383,0,0,0-.071-.026,1.836,1.836,0,0,1-1.223-.754,2.181,2.181,0,0,1-.347-.861v-11.33c.01-.034.023-.068.03-.1a1.785,1.785,0,0,1,1.183-1.412,2.935,2.935,0,0,1,.741-.122c.213-.019.428,0,.653,0v-1.228h1.241v1.219h8.169v-1.217h1.241v1.226c.232,0,.453-.006.674,0a2.5,2.5,0,0,1,.475.049,1.846,1.846,0,0,1,1.444,1.859q0,3.591,0,7.181a.382.382,0,0,1-.1.239q-2.474,2.58-4.957,5.154C1432.351-973.5,1432.317-973.45,1432.28-973.408Zm3.92-6.253v-3.769h-13.362v.157q0,3.954,0,7.909a.637.637,0,0,0,.726.718h7.818v-.189c0-1-.008-2,0-3a1.817,1.817,0,0,1,1.573-1.791,9.3,9.3,0,0,1,1.127-.031C1434.787-979.664,1435.488-979.661,1436.2-979.661Zm-2.586-7.109h-8.18v1.218h-1.241v-1.229c-.244,0-.47,0-.7,0a.621.621,0,0,0-.659.661c0,.382,0,.763,0,1.145v.288h13.371c0-.511.008-1.011,0-1.511a.58.58,0,0,0-.516-.569c-.274-.025-.553-.005-.846-.005v1.222h-1.23Zm-.994,11.208,2.754-2.86h-.163q-.951,0-1.9,0a.627.627,0,0,0-.689.692q0,1,0,2.01Z" transform="translate(-1421.6 989.247)" fill="#282776"/>
    <path id="Path_8981" data-name="Path 8981" d="M1466.962-835.165c-.712,0-1.414,0-2.115,0a9.29,9.29,0,0,0-1.127.031,1.817,1.817,0,0,0-1.573,1.791c-.011,1,0,2,0,3v.189h-7.818a.637.637,0,0,1-.726-.718q0-3.954,0-7.909v-.157h13.362Z" transform="translate(-1452.361 844.751)" fill="#fff"/>
    <path id="Path_8982" data-name="Path 8982" d="M1464.357-925.53v1.22h1.23v-1.222c.293,0,.572-.02.846.005a.58.58,0,0,1,.516.569c.01.5,0,1,0,1.511h-13.371v-.288c0-.382,0-.764,0-1.145a.621.621,0,0,1,.659-.661c.227,0,.453,0,.7,0v1.229h1.241v-1.218Z" transform="translate(-1452.342 928.007)" fill="#fff"/>
    <path id="Path_8983" data-name="Path 8983" d="M1706.393-706.672v-.159q0-1,0-2.01a.628.628,0,0,1,.689-.692q.951,0,1.9,0h.163Z" transform="translate(-1695.372 720.356)" fill="#fff"/>
  </g>
</svg>
