<svg id="Component_9_11" data-name="Component 9 – 11" xmlns="http://www.w3.org/2000/svg" width="56.911" height="40.019" viewBox="0 0 56.911 40.019">
  <path id="Path_8725" data-name="Path 8725" d="M-569,780.758a4.95,4.95,0,0,1,1.731-2.947,4.852,4.852,0,0,1,2.7-.95,3.256,3.256,0,0,1,1.833-2.915,4.615,4.615,0,0,1,1.815-.395c3.371-.037,6.742-.013,10.112-.026a2.031,2.031,0,0,0,.845-.191q8.379-4.018,16.75-8.051a.691.691,0,0,0,.472-.693,3.319,3.319,0,0,1,3.368-3.278,3.321,3.321,0,0,1,3.276,3.375c.024,3.519.015,7.038,0,10.557,0,.448.091.668.568.808a5.52,5.52,0,0,1,3.884,5.249,5.58,5.58,0,0,1-3.9,5.3c-.174.054-.346.115-.538.179v1.853c0,3.075.01,6.149,0,9.224a3.223,3.223,0,0,1-1.969,3.148,3.169,3.169,0,0,1-3.571-.546,3.133,3.133,0,0,1-1.108-2.4.684.684,0,0,0-.447-.71c-5.6-2.685-11.2-5.393-16.8-8.066a6.312,6.312,0,0,0-1.535-.281c.11.366-9.1.062-9.614.073a3.331,3.331,0,0,1-3.416-3.223,13.194,13.194,0,0,1-1.849-.535,4.28,4.28,0,0,1-2.488-3.137c-.024-.107-.065-.209-.1-.314Zm36.222-13.207c-.175.075-.276.114-.374.161q-7.721,3.718-15.444,7.429a.626.626,0,0,0-.4.675q.018,5.5,0,11a.663.663,0,0,0,.462.7q7.651,3.67,15.293,7.359c.142.068.293.119.471.189Zm-18.456,8.2h-.551q-4.525,0-9.05,0c-1.125,0-1.495.373-1.5,1.5q0,4.053,0,8.106c0,1.131.371,1.5,1.5,1.5q4.525,0,9.05,0c.178,0,.357-.016.551-.025Zm22.917,5.557q0-8.113,0-16.227a2.831,2.831,0,0,0-.076-.768,1.006,1.006,0,0,0-1.032-.771,1.016,1.016,0,0,0-1.034.771,2.329,2.329,0,0,0-.075.657q-.005,16.338,0,32.675c0,.9.42,1.438,1.111,1.438s1.106-.537,1.111-1.438c0-.111,0-.222,0-.333Zm-25.969,7.794Zm28.192-10.886V784.4a3.245,3.245,0,0,0,2.22-3.06A3.256,3.256,0,0,0-526.095,778.221Zm-38.478.9a2.2,2.2,0,0,0-2.2,2.329,2.134,2.134,0,0,0,2.2,2.031Z" transform="translate(569 -761.31)" fill="#282776"/>
  <path id="Path_8726" data-name="Path 8726" d="M-115.59,932.725a1.561,1.561,0,0,1-1.57.788c-1.5-.033-2.994,0-4.491-.014-.923-.009-1.482-.721-1.187-1.485a1.082,1.082,0,0,1,1.076-.727c1.663-.012,3.327,0,4.99-.006a1.4,1.4,0,0,1,1.182.778Z" transform="translate(172.501 -912.388)" fill="#282776"/>
  <path id="Path_8727" data-name="Path 8727" d="M-120.129,837.041a1.121,1.121,0,0,1-1.112-1.618,1.8,1.8,0,0,1,.3-.395q1.444-1.455,2.9-2.9a1.154,1.154,0,0,1,1.252-.363.917.917,0,0,1,.71.888,1.641,1.641,0,0,1-.356.987c-.971,1.038-1.986,2.035-3.01,3.021A2.6,2.6,0,0,1-120.129,837.041Z" transform="translate(171.128 -823.878)" fill="#282776"/>
  <path id="Path_8728" data-name="Path 8728" d="M-120.552,1001.6a4.879,4.879,0,0,1,.923.53q1.515,1.461,2.981,2.972a1.124,1.124,0,0,1,.1,1.634,1.121,1.121,0,0,1-1.673-.068c-1.005-.979-1.991-1.978-2.979-2.975a1.031,1.031,0,0,1-.265-1.306A3.99,3.99,0,0,1-120.552,1001.6Z" transform="translate(171.326 -974.887)" fill="#282776"/>
  <path id="Path_8729" data-name="Path 8729" d="M-372.875,817.461v27.508c-.177-.071-.328-.121-.471-.189q-7.646-3.681-15.293-7.359a.663.663,0,0,1-.462-.7q.028-5.5,0-11a.626.626,0,0,1,.4-.675q7.728-3.7,15.444-7.429C-373.152,817.576-373.05,817.536-372.875,817.461Zm-5.978,7.531c.012-1.078-.775-1.59-1.606-1.235-1.9.812-3.788,1.651-5.671,2.5a1.092,1.092,0,0,0-.636,1.459,1.1,1.1,0,0,0,1.53.561c1.914-.826,3.825-1.662,5.711-2.549C-379.195,825.576-378.991,825.151-378.853,824.992Zm2.676-1.558a1.137,1.137,0,0,0,1.084-1.121,1.137,1.137,0,0,0-1.122-1.084,1.137,1.137,0,0,0-1.084,1.122A1.137,1.137,0,0,0-376.177,823.434Z" transform="translate(409.098 -811.22)" fill="#fff"/>
  <path id="Path_8730" data-name="Path 8730" d="M-497.908,891.274v11.089c-.194.009-.373.025-.551.025q-4.525,0-9.05,0c-1.125,0-1.495-.373-1.5-1.5q0-4.053,0-8.106c0-1.131.371-1.5,1.5-1.5q4.525,0,9.05,0Zm-5.576,4.446c.7,0,1.408.01,2.111,0a1.144,1.144,0,0,0,1.252-1.126,1.137,1.137,0,0,0-1.233-1.089q-2.083-.021-4.167,0a1.139,1.139,0,0,0-1.252,1.126,1.142,1.142,0,0,0,1.233,1.09C-504.855,895.731-504.169,895.719-503.484,895.719Zm.081,2.224c-.7,0-1.408-.01-2.111,0a1.145,1.145,0,0,0-1.258,1.12,1.134,1.134,0,0,0,1.226,1.1q2.111.021,4.222,0a1.126,1.126,0,0,0,1.2-1.118,1.141,1.141,0,0,0-1.226-1.1C-502.032,897.931-502.718,897.943-503.4,897.943Z" transform="translate(515.673 -876.828)" fill="#fff"/>
  <path id="Path_8731" data-name="Path 8731" d="M-220.776,799.208v16c0,.111,0,.222,0,.333,0,.9-.42,1.438-1.111,1.438s-1.111-.537-1.111-1.438q0-16.338,0-32.675a2.326,2.326,0,0,1,.075-.657,1.016,1.016,0,0,1,1.034-.771,1.007,1.007,0,0,1,1.032.771,2.832,2.832,0,0,1,.076.768Q-220.773,791.1-220.776,799.208Z" transform="translate(261.458 -779.205)" fill="#fff"/>
  <path id="Path_8733" data-name="Path 8733" d="M-183,913.45a3.256,3.256,0,0,1,2.22,3.123,3.245,3.245,0,0,1-2.22,3.06V913.45Z" transform="translate(225.905 -896.539)" fill="#fff"/>
  <path id="Path_8734" data-name="Path 8734" d="M-546.762,921.516v4.36a2.134,2.134,0,0,1-2.2-2.031A2.2,2.2,0,0,1-546.762,921.516Z" transform="translate(551.189 -903.709)" fill="#fff"/>
  <path id="Path_8735" data-name="Path 8735" d="M-360.9,874.445c-.138.159-.342.584-.672.74-1.886.887-3.8,1.723-5.711,2.549a1.1,1.1,0,0,1-1.53-.561,1.092,1.092,0,0,1,.636-1.459c1.882-.852,3.771-1.692,5.671-2.5C-361.678,872.855-360.89,873.367-360.9,874.445Z" transform="translate(391.146 -860.672)" fill="#282776"/>
  <path id="Path_8736" data-name="Path 8736" d="M-281.8,853.56a1.137,1.137,0,0,1-1.122-1.084,1.137,1.137,0,0,1,1.084-1.121,1.137,1.137,0,0,1,1.122,1.084A1.137,1.137,0,0,1-281.8,853.56Z" transform="translate(314.72 -841.346)" fill="#282776"/>
  <path id="Path_8737" data-name="Path 8737" d="M-485.634,913.454c-.685,0-1.371.012-2.056,0a1.142,1.142,0,0,1-1.233-1.09,1.139,1.139,0,0,1,1.252-1.125q2.083-.019,4.167,0a1.137,1.137,0,0,1,1.233,1.089,1.144,1.144,0,0,1-1.252,1.126C-484.226,913.465-484.93,913.454-485.634,913.454Z" transform="translate(497.823 -894.562)" fill="#282776"/>
  <path id="Path_8738" data-name="Path 8738" d="M-485.551,951.245c.685,0,1.371-.012,2.056,0a1.141,1.141,0,0,1,1.226,1.1,1.126,1.126,0,0,1-1.2,1.118q-2.111.025-4.222,0a1.134,1.134,0,0,1-1.226-1.1,1.145,1.145,0,0,1,1.258-1.12C-486.959,951.235-486.255,951.245-485.551,951.245Z" transform="translate(497.822 -930.129)" fill="#282776"/>
  <g id="Rectangle_791" data-name="Rectangle 791" transform="translate(8 26)" fill="#fff" stroke="#282776" stroke-width="2">
    <path d="M0,0H9A0,0,0,0,1,9,0V11a3,3,0,0,1-3,3H3a3,3,0,0,1-3-3V0A0,0,0,0,1,0,0Z" stroke="none"/>
    <path d="M2,1H7A1,1,0,0,1,8,2v9a2,2,0,0,1-2,2H3a2,2,0,0,1-2-2V2A1,1,0,0,1,2,1Z" fill="none"/>
  </g>
</svg>
