<svg id="Component_10_8" data-name="Component 10 – 8" xmlns="http://www.w3.org/2000/svg" width="52.478" height="50.672" viewBox="0 0 52.478 50.672">
  <g id="Group_2650" data-name="Group 2650">
    <path id="Path_8739" data-name="Path 8739" d="M1953.558-319.008h11.4v-2.6h-11.4Z" transform="translate(-1945.24 349.809)" fill="#fff"/>
    <path id="Path_8740" data-name="Path 8740" d="M1953.156-444.354a7.738,7.738,0,0,0-8.719-6.6,7.332,7.332,0,0,0-6.208,4.565,7.654,7.654,0,0,0,.779,7.775.561.561,0,0,0,.341.256c.558.027,1.117.012,1.77.012-.2-2.055.052-3.926,1.9-5.158-1.073-1.968-.964-3.441.32-4.545a3.148,3.148,0,0,1,4.01-.091,3.026,3.026,0,0,1,1.125,1.782,3.232,3.232,0,0,1-.731,2.83c1.9,1.264,2.122,3.142,1.963,5.184.568,0,1.061.025,1.549-.013a.8.8,0,0,0,.535-.274A7.483,7.483,0,0,0,1953.156-444.354Z" transform="translate(-1931.386 461.524)" fill="#fff"/>
    <path id="Path_8741" data-name="Path 8741" d="M1986.646-422.078a1.608,1.608,0,0,0-1.636-1.61,1.614,1.614,0,0,0-1.586,1.609,1.6,1.6,0,0,0,1.636,1.606A1.6,1.6,0,0,0,1986.646-422.078Z" transform="translate(-1971.025 437.936)" fill="#fff"/>
    <path id="Path_8742" data-name="Path 8742" d="M2211.57-443.613a.64.64,0,0,0,.667-.62.64.64,0,0,0-.644-.642.619.619,0,0,0-.636.644A.612.612,0,0,0,2211.57-443.613Z" transform="translate(-2167.462 456.227)" fill="#fff"/>
    <path id="Path_8743" data-name="Path 8743" d="M1996.541-250.325l5.727,5.313a7.988,7.988,0,0,0,.182-9.746Z" transform="translate(-1982.35 292.091)" fill="#fff"/>
    <path id="Path_8744" data-name="Path 8744" d="M1979.222-389.251a3.013,3.013,0,0,0-2.508-.218,2.38,2.38,0,0,0-1.745,2.234c-.058.59-.01,1.19-.01,1.83h5.534c0-.589.03-1.135-.007-1.677A2.716,2.716,0,0,0,1979.222-389.251Z" transform="translate(-1963.7 408.539)" fill="#fff"/>
    <path id="Path_8745" data-name="Path 8745" d="M1944.459-262.072c-.768-.714-.732-1.277.118-1.915q.839-.631,1.68-1.259l3.027-2.275a6.832,6.832,0,0,0-9.465.073,6.883,6.883,0,0,0-.044,9.829,6.855,6.855,0,0,0,9.6.023,4.218,4.218,0,0,1-.408-.3Q1946.709-259.978,1944.459-262.072Z" transform="translate(-1931.577 304.723)" fill="#fff"/>
    <path id="Path_8746" data-name="Path 8746" d="M1952.423-516.59h-47.541c-.137,0-.274,0-.41,0a.481.481,0,0,0-.521.509c-.006,1.295,0,2.589,0,3.914h49.4c0-1.182,0-2.339,0-3.5C1953.349-516.532,1953.292-516.59,1952.423-516.59Zm-17.839,2.981c-.169.015-.341.008-.512.008h-26.019a4.827,4.827,0,0,1-.563-.014.7.7,0,0,1-.659-.67.7.7,0,0,1,.561-.8,2.17,2.17,0,0,1,.557-.049q13.112,0,26.224,0a2.353,2.353,0,0,1,.509.034.708.708,0,0,1,.614.765A.711.711,0,0,1,1934.584-513.609Zm9.155.008c-.606.005-.94-.253-.953-.737s.329-.791.905-.8.941.274.955.751S1944.326-513.606,1943.739-513.6Zm2.872,0c-.573,0-.938-.308-.929-.774s.391-.767.956-.763.931.319.923.79S1947.206-513.6,1946.611-513.6Zm2.906,0c-.581,0-.9-.264-.907-.743s.338-.792.923-.794.946.307.942.784S1950.111-513.6,1949.517-513.6Z" transform="translate(-1902.41 518.143)" fill="#fff"/>
    <path id="Path_8747" data-name="Path 8747" d="M2145.34-446.263a.606.606,0,0,0,.614-.616.637.637,0,0,0-.62-.665.649.649,0,0,0-.645.645A.637.637,0,0,0,2145.34-446.263Z" transform="translate(-2110.252 458.532)" fill="#fff"/>
    <path id="Path_8748" data-name="Path 8748" d="M2173.962-414.011a.651.651,0,0,0,.639-.658.669.669,0,0,0-.675-.624.653.653,0,0,0-.607.685A.63.63,0,0,0,2173.962-414.011Z" transform="translate(-2134.965 430.69)" fill="#fff"/>
    <path id="Path_8749" data-name="Path 8749" d="M2133.562-318.682h8.76v-2.279h-8.76Z" transform="translate(-2100.645 349.247)" fill="#fff"/>
    <path id="Path_8750" data-name="Path 8750" d="M1942.538-527.945q-23.6.035-47.209,0a2.45,2.45,0,0,0-2.634,1.545v8.1c.3.293.607.574,1.063.379.485-.207.487-.645.477-1.087s0-.907,0-1.355h49.4v.534q0,15.117,0,30.234c0,.137.042.3-.019.4-.094.159-.254.385-.394.391-.878.036-1.759.018-2.665.018,0-.667.016-1.263-.005-1.859a.757.757,0,0,0-.743-.765.772.772,0,0,0-.784.776c-.009.136,0,.273,0,.41q0,4.381,0,8.763v.57h-4.035c0-.5.013-.976,0-1.449a1.2,1.2,0,0,0-1.317-1.3q-3.69-.016-7.379,0a1.2,1.2,0,0,0-1.3,1.316c-.007.473,0,.947,0,1.435h-3.993v-22.3h18.032v.588q0,4,0,7.994a2.78,2.78,0,0,0,.01.46.716.716,0,0,0,.718.669.723.723,0,0,0,.793-.642,2.165,2.165,0,0,0,.016-.46q0-4.125,0-8.25c0-1.34-.594-1.931-1.939-1.931H1921.35c-1.35,0-1.933.581-1.934,1.929q0,6.713,0,13.426v.634c-1.213,0-2.356-.013-3.5.008a.578.578,0,0,1-.628-.419,25.239,25.239,0,0,0-1.437-2.642c-.448-.706-.974-.745-1.649-.258-.175.126-.352.248-.5.354a.733.733,0,0,1-.1-.048c-.1-.09-.2-.183-.306-.272a8.16,8.16,0,0,0-6.851-1.985,8.171,8.171,0,0,0-6.413,4.925.487.487,0,0,1-.531.342c-.8-.018-1.606-.006-2.408-.006s-.86-.055-.86-.884q0-12.529,0-25.059c0-.43-.025-.834-.494-1.022s-.767.1-1.046.411v26.546a2.247,2.247,0,0,0,2.512,1.554c.712-.049,1.429-.009,2.185-.009-.4,3.909.886,7.039,4.39,8.9s6.822,1.188,9.827-1.31c1.145.838,1.414.8,2.306-.347a9.184,9.184,0,0,0,1.973-6.352c-.013-.239-.031-.477-.043-.716a.754.754,0,0,1,.026-.138h3.517c.008.165.025.344.025.523,0,1.844,0,3.688,0,5.532a1.606,1.606,0,0,0,1.817,1.826q1.946,0,3.893,0c.98,0,1.389-.426,1.393-1.415,0-.439,0-.878,0-1.344h6.93c0,.474-.007.946,0,1.418.016.923.431,1.336,1.362,1.341q2,.011,4,0a1.6,1.6,0,0,0,1.75-1.746c0-2.031,0-4.061,0-6.17.7,0,1.377-.041,2.049.009a2.267,2.267,0,0,0,2.564-1.554V-526.4A2.451,2.451,0,0,0,1942.538-527.945Zm1.1,5.979h-49.4c0-1.325,0-2.62,0-3.914a.481.481,0,0,1,.521-.509c.136-.008.273,0,.41,0h47.541c.869,0,.927.058.927.931C1943.635-524.3,1943.634-523.148,1943.634-521.966Zm-42.742,41.125a6.883,6.883,0,0,1,.044-9.829,6.832,6.832,0,0,1,9.465-.073l-3.027,2.275q-.839.63-1.68,1.259c-.85.638-.886,1.2-.118,1.915q2.25,2.093,4.506,4.179a4.224,4.224,0,0,0,.408.3A6.855,6.855,0,0,1,1900.892-480.84Zm11.721-.025-5.727-5.313,5.909-4.433A7.988,7.988,0,0,1,1912.613-480.865Z" transform="translate(-1892.695 527.945)" fill="#282776"/>
    <path id="Path_8751" data-name="Path 8751" d="M1943.806-457.443a8.869,8.869,0,0,0-9.09-4.769,8.826,8.826,0,0,0-7.664,5.511,9.123,9.123,0,0,0,1.044,9.446,1.613,1.613,0,0,0,1.466.744c2.014-.027,4.028-.01,6.042-.01,2.031,0,4.063-.016,6.093.009a1.568,1.568,0,0,0,1.428-.716C1945.4-450.5,1945.749-453.967,1943.806-457.443Zm-5.4,9.341h-5.534c0-.64-.048-1.24.01-1.83a2.38,2.38,0,0,1,1.745-2.234,3.012,3.012,0,0,1,2.508.218,2.716,2.716,0,0,1,1.264,2.17C1938.432-449.237,1938.4-448.691,1938.4-448.1Zm-4.393-7.278a1.614,1.614,0,0,1,1.586-1.609,1.607,1.607,0,0,1,1.636,1.61,1.6,1.6,0,0,1-1.585,1.605A1.6,1.6,0,0,1,1934.009-455.38Zm8,7.035a.8.8,0,0,1-.535.274c-.488.038-.981.013-1.549.013.159-2.043-.066-3.92-1.963-5.184a3.233,3.233,0,0,0,.731-2.83,3.028,3.028,0,0,0-1.125-1.782,3.148,3.148,0,0,0-4.01.091c-1.284,1.1-1.393,2.577-.32,4.545-1.847,1.233-2.095,3.1-1.9,5.158-.653,0-1.212.015-1.77-.012a.561.561,0,0,1-.342-.256,7.655,7.655,0,0,1-.779-7.775,7.332,7.332,0,0,1,6.208-4.565,7.738,7.738,0,0,1,8.72,6.6A7.485,7.485,0,0,1,1942.012-448.345Z" transform="translate(-1921.61 471.237)" fill="#282776"/>
    <path id="Path_8752" data-name="Path 8752" d="M2102.156-461.63a.758.758,0,0,0-.742-.813.8.8,0,0,0-.783.787c-.012.119-.006.239-.006.358q0,4.841,0,9.682c0,1.05.3,1.35,1.332,1.35h13.934a2.829,2.829,0,0,0,.46-.012.711.711,0,0,0,.649-.681.692.692,0,0,0-.516-.784,2.075,2.075,0,0,0-.605-.058q-6.531,0-13.063,0h-.653c0-.993-.019-1.929.014-2.863a.913.913,0,0,1,.31-.618c1.017-.777,2.067-1.51,3.091-2.277a.821.821,0,0,1,1-.165,1.339,1.339,0,0,0,.892.116.875.875,0,0,1,1.074.408,2.428,2.428,0,0,0,.411.456.608.608,0,0,1,.172.758,2.017,2.017,0,0,0,.609,2.235,2.041,2.041,0,0,0,2.236.426,1.857,1.857,0,0,0,1.362-1.854c-.075-.852.395-1.166.916-1.555a5.908,5.908,0,0,0,.6-.479.69.69,0,0,1,.823-.141,2.116,2.116,0,0,0,2.416-.757,2.158,2.158,0,0,0,.043-2.539,2.194,2.194,0,0,0-2.4-.858,2,2,0,0,0-1.543,2.043c.117.778-.275,1.068-.757,1.417a5.807,5.807,0,0,0-.564.443.758.758,0,0,1-1.03.185.933.933,0,0,0-.693-.1c-.679.229-1.041-.146-1.387-.615-.091-.123-.241-.213-.3-.347a1.62,1.62,0,0,1-.122-.575,6.2,6.2,0,0,0-.023-1.4,2.1,2.1,0,0,0-2.4-1.454,2.183,2.183,0,0,0-1.814,2.215c0,.208.046.522-.067.61-.907.708-1.848,1.373-2.874,2.121v-.665C2102.162-458.966,2102.169-460.3,2102.156-461.63Zm14.184,1.588a.64.64,0,0,1,.644.642.64.64,0,0,1-.667.62.611.611,0,0,1-.614-.618A.619.619,0,0,1,2116.34-460.042ZM2111.169-456a.668.668,0,0,1,.675.624.651.651,0,0,1-.638.658.63.63,0,0,1-.644-.6A.653.653,0,0,1,2111.169-456Zm-3.878-4.408a.637.637,0,0,1,.62.665.606.606,0,0,1-.615.616.637.637,0,0,1-.65-.636A.649.649,0,0,1,2107.291-460.407Z" transform="translate(-2072.208 471.394)" fill="#282776"/>
    <path id="Path_8753" data-name="Path 8753" d="M1955.156-333.082q-2.894,0-5.787,0h-5.48c-1.546,0-1.8.257-1.8,1.825,0,.819,0,1.639,0,2.458,0,1.04.421,1.468,1.454,1.468q5.813,0,11.626,0c1,0,1.446-.444,1.454-1.43.008-.956.006-1.912,0-2.868C1956.619-332.669,1956.2-333.08,1955.156-333.082Zm-.1,4.17h-11.4v-2.6h11.4Z" transform="translate(-1935.339 359.713)" fill="#282776"/>
    <path id="Path_8754" data-name="Path 8754" d="M2133.869-331c0-.976-.426-1.4-1.406-1.406-1.52-.006-3.04,0-4.56,0-1.554,0-3.109-.008-4.663,0a1.143,1.143,0,0,0-1.282,1.261q-.02,1.435,0,2.869a1.153,1.153,0,0,0,1.268,1.282q4.688.018,9.376,0a1.168,1.168,0,0,0,1.266-1.292C2133.877-329.185,2133.873-330.091,2133.869-331Zm-1.574,2.433h-8.76v-2.279h8.76Z" transform="translate(-2090.619 359.128)" fill="#282776"/>
    <path id="Path_8755" data-name="Path 8755" d="M2154.1-275.805c.955.007,1.909,0,2.864,0,.972,0,1.944,0,2.915,0,.6,0,.948-.294.949-.763s-.354-.774-.946-.776q-2.889-.009-5.779,0c-.579,0-.94.33-.924.8S2153.537-275.809,2154.1-275.805Z" transform="translate(-2117.583 311.594)" fill="#282776"/>
    <path id="Path_8756" data-name="Path 8756" d="M2154.121-251.77c.954.005,1.909,0,2.863,0s1.909,0,2.864,0c.628,0,.992-.3.976-.786-.015-.467-.368-.747-.97-.748q-2.863-.006-5.727,0c-.591,0-.951.3-.953.769S2153.525-251.773,2154.121-251.77Z" transform="translate(-2117.576 290.839)" fill="#282776"/>
    <path id="Path_8757" data-name="Path 8757" d="M2154.118-227.77c.971,0,1.943,0,2.915,0,.938,0,1.875,0,2.813,0,.628,0,.992-.3.978-.784-.014-.468-.367-.75-.969-.751q-2.864-.006-5.727,0c-.591,0-.952.3-.955.768S2153.522-227.773,2154.118-227.77Z" transform="translate(-2117.575 270.119)" fill="#282776"/>
    <path id="Path_8758" data-name="Path 8758" d="M2122.779-275.86c.254.021.511,0,.766,0s.512.014.766,0a.714.714,0,0,0,.727-.713.69.69,0,0,0-.641-.788,8.894,8.894,0,0,0-1.683,0,.684.684,0,0,0-.646.78A.7.7,0,0,0,2122.779-275.86Z" transform="translate(-2090.722 311.64)" fill="#282776"/>
    <path id="Path_8759" data-name="Path 8759" d="M2124.354-253.359a9.638,9.638,0,0,0-1.633,0,.7.7,0,0,0-.665.767.729.729,0,0,0,.746.742c.238.016.477,0,.715,0,.256,0,.512.013.766,0a.747.747,0,0,0,.75-.747A.715.715,0,0,0,2124.354-253.359Z" transform="translate(-2090.712 290.913)" fill="#282776"/>
    <path id="Path_8760" data-name="Path 8760" d="M2122.7-229.337a.68.68,0,0,0-.634.788.7.7,0,0,0,.72.712c.254.018.511,0,.766,0s.513.015.767,0a.71.71,0,0,0,.716-.722.691.691,0,0,0-.652-.779A9.035,9.035,0,0,0,2122.7-229.337Z" transform="translate(-2090.721 270.18)" fill="#282776"/>
    <path id="Path_8761" data-name="Path 8761" d="M1952.865-505.916a2.355,2.355,0,0,0-.509-.034q-13.112,0-26.223,0a2.173,2.173,0,0,0-.557.049.7.7,0,0,0-.561.8.7.7,0,0,0,.659.67,4.827,4.827,0,0,0,.563.014h26.019c.171,0,.343.007.512-.008a.71.71,0,0,0,.712-.728A.708.708,0,0,0,1952.865-505.916Z" transform="translate(-1920.593 508.957)" fill="#282776"/>
    <path id="Path_8762" data-name="Path 8762" d="M2189.043-505.95c-.577.009-.918.311-.905.8s.348.742.953.737c.587-.005.921-.294.906-.785S2189.624-505.959,2189.043-505.95Z" transform="translate(-2147.762 508.956)" fill="#282776"/>
    <path id="Path_8763" data-name="Path 8763" d="M2210.292-505.949c-.565,0-.946.3-.956.763s.356.771.929.774c.594,0,.941-.269.95-.746S2210.856-505.945,2210.292-505.949Z" transform="translate(-2166.064 508.955)" fill="#282776"/>
    <path id="Path_8764" data-name="Path 8764" d="M2231.685-505.948c-.585,0-.933.3-.923.794s.326.738.907.743.954-.279.958-.753S2232.26-505.95,2231.685-505.948Z" transform="translate(-2184.563 508.954)" fill="#282776"/>
    <g id="Group_2650-2" data-name="Group 2650" transform="translate(0.793 7.58)">
      <path id="Path_8765" data-name="Path 8765" d="M1948.646-441.712q0-15.117,0-30.234v-.534h-49.4c0,.448-.008.9,0,1.355s.009.88-.477,1.087a.758.758,0,0,1-.27.063v2.06a.8.8,0,0,1,.253.059c.469.188.494.592.494,1.022q-.006,12.529,0,25.059c0,.828.053.883.86.884s1.606-.012,2.408.006a.487.487,0,0,0,.531-.342,8.172,8.172,0,0,1,6.413-4.925,8.159,8.159,0,0,1,6.851,1.985c.1.088.2.182.306.272a.731.731,0,0,0,.1.048c.151-.106.328-.228.5-.354.675-.487,1.2-.449,1.648.258a25.242,25.242,0,0,1,1.437,2.642.578.578,0,0,0,.628.419c1.142-.021,2.285-.008,3.5-.008v-.634q0-6.713,0-13.426c0-1.348.584-1.928,1.934-1.929h17.269c1.345,0,1.939.591,1.939,1.931q0,4.125,0,8.25a2.181,2.181,0,0,1-.016.46.72.72,0,0,1-.762.641v2.075h.027a.757.757,0,0,1,.742.765c.021.6.005,1.193.005,1.859.906,0,1.787.017,2.665-.018.14-.006.3-.232.394-.391C1948.688-441.411,1948.646-441.576,1948.646-441.712Zm-29.654-7.4c-.008.987-.457,1.43-1.454,1.43q-5.813,0-11.626,0c-1.033,0-1.451-.428-1.454-1.468,0-.819,0-1.639,0-2.458,0-1.568.253-1.825,1.8-1.825h5.48q2.894,0,5.787,0c1.047,0,1.462.413,1.468,1.452C1919-451.021,1919-450.065,1918.992-449.109Zm.231-6.942a1.568,1.568,0,0,1-1.428.717c-2.031-.025-4.062-.009-6.094-.009-2.014,0-4.029-.017-6.042.01a1.613,1.613,0,0,1-1.466-.744,9.123,9.123,0,0,1-1.044-9.446,8.826,8.826,0,0,1,7.664-5.511,8.87,8.87,0,0,1,9.09,4.769C1921.846-462.79,1921.495-459.322,1919.223-456.051Zm24.365-10.727a2.116,2.116,0,0,1-2.416.757.69.69,0,0,0-.823.141,5.909,5.909,0,0,1-.6.479c-.521.389-.991.7-.916,1.555a1.857,1.857,0,0,1-1.362,1.854,2.041,2.041,0,0,1-2.236-.426,2.017,2.017,0,0,1-.609-2.235.607.607,0,0,0-.172-.758,2.419,2.419,0,0,1-.411-.456.875.875,0,0,0-1.074-.408,1.339,1.339,0,0,1-.892-.116.82.82,0,0,0-1,.165c-1.025.767-2.074,1.5-3.092,2.277a.913.913,0,0,0-.31.618c-.033.934-.014,1.869-.014,2.863h.653q6.531,0,13.063,0a2.079,2.079,0,0,1,.606.058.692.692,0,0,1,.516.784.711.711,0,0,1-.649.681,2.835,2.835,0,0,1-.46.012h-13.934c-1.036,0-1.332-.3-1.333-1.35q0-4.841,0-9.682c0-.12-.006-.24.006-.358a.8.8,0,0,1,.783-.787.758.758,0,0,1,.742.813c.013,1.332.006,2.664.007,4v.665c1.026-.748,1.967-1.413,2.875-2.121.113-.088.071-.4.067-.61a2.183,2.183,0,0,1,1.814-2.215,2.1,2.1,0,0,1,2.4,1.454,6.2,6.2,0,0,1,.023,1.4,1.614,1.614,0,0,0,.122.575c.058.134.208.224.3.347.346.468.708.844,1.387.615a.934.934,0,0,1,.693.1.758.758,0,0,0,1.03-.185,5.8,5.8,0,0,1,.563-.443c.482-.349.875-.639.758-1.417a2,2,0,0,1,1.542-2.043,2.195,2.195,0,0,1,2.4.858A2.158,2.158,0,0,1,1943.588-466.778Z" transform="translate(-1898.5 472.48)" fill="#fff"/>
    </g>
    <path id="Path_8766" data-name="Path 8766" d="M2118.62-337.12a.715.715,0,0,1-.715-.668,2.754,2.754,0,0,1-.01-.46q0-4,0-7.994v-.588h-18.032v22.3h3.993c0-.488-.006-.962,0-1.435a1.2,1.2,0,0,1,1.3-1.316q3.69-.017,7.379,0a1.2,1.2,0,0,1,1.317,1.3c.015.473,0,.947,0,1.449h4.035v-9.333c0-.137-.007-.274,0-.41a.775.775,0,0,1,.723-.775Zm-13.452,7.879c-.254.019-.511,0-.766,0s-.512.015-.766,0a.7.7,0,0,1-.719-.712.68.68,0,0,1,.634-.788,9.038,9.038,0,0,1,1.683,0,.691.691,0,0,1,.652.78A.71.71,0,0,1,2105.168-329.24Zm-.028-3.279c-.254.017-.51,0-.766,0-.239,0-.478.013-.715,0a.729.729,0,0,1-.746-.742.7.7,0,0,1,.665-.767,9.632,9.632,0,0,1,1.633,0,.715.715,0,0,1,.68.761A.747.747,0,0,1,2105.14-332.519Zm-2.225-4a.684.684,0,0,1,.646-.78,8.9,8.9,0,0,1,1.682,0,.69.69,0,0,1,.641.788.714.714,0,0,1-.727.713c-.254.017-.511,0-.767,0s-.512.017-.766,0A.7.7,0,0,1,2102.915-336.524Zm10.922,7.291c-.937,0-1.875,0-2.812,0-.972,0-1.943,0-2.915,0-.6,0-.949-.3-.946-.766s.364-.766.955-.768q2.863-.007,5.727,0c.6,0,.954.283.969.751C2114.83-329.532,2114.465-329.235,2113.837-329.233Zm-5.72-4.814q2.864-.006,5.727,0c.6,0,.955.281.97.748.016.485-.348.783-.976.786-.955,0-1.909,0-2.864,0s-1.909,0-2.863,0c-.6,0-.949-.3-.948-.765S2107.527-334.046,2108.117-334.047Zm-.951-2.485c-.016-.468.346-.8.924-.8q2.89-.01,5.779,0c.591,0,.946.305.946.776s-.353.759-.949.762c-.971.005-1.943,0-2.915,0-.955,0-1.909,0-2.864,0C2107.521-335.8,2107.182-336.078,2107.166-336.532Zm7.65-4.2a1.168,1.168,0,0,1-1.266,1.292q-4.688.019-9.376,0a1.153,1.153,0,0,1-1.267-1.282q-.019-1.434,0-2.869a1.143,1.143,0,0,1,1.282-1.261c1.554-.012,3.109,0,4.663,0,1.52,0,3.04,0,4.56,0,.981,0,1.4.43,1.406,1.406C2114.822-342.545,2114.826-341.639,2114.816-340.734Z" transform="translate(-2071.551 371.582)" fill="#fff"/>
  </g>
</svg>
