<svg id="Component_13_5" data-name="Component 13 – 5" xmlns="http://www.w3.org/2000/svg" width="48.289" height="48.295" viewBox="0 0 48.289 48.295">
  <path id="Path_8849" data-name="Path 8849" d="M451.276-649.168c0-.506,0-.942,0-1.379.006-.673.277-.951.939-.957s1.331-.013,2,0a.44.44,0,0,0,.523-.357c.277-.911.592-1.81.909-2.763H439.917a3.148,3.148,0,0,1-3.438-3.448q0-11.365,0-22.729a3.135,3.135,0,0,1,3.419-3.417h5.147v-3.1c0-.746-.006-1.493,0-2.239a.792.792,0,0,1,.9-.893c.941-.008,1.882-.006,2.823,0,.665,0,.941.282.943.952.007,1.72.008,3.439.012,5.159a.473.473,0,0,0,.025.081h.744v-.512q0-4.989,0-9.978c0-.938.213-1.155,1.131-1.156h2.433c.885,0,1.108.228,1.108,1.132q0,4.989,0,9.978v.548h.779v-.507q0-3.5,0-7.008c0-.768.256-1.024,1.016-1.027q1.314,0,2.628,0c.766,0,1.026.258,1.027,1.017q0,3.48,0,6.96v.558h9.521a7.067,7.067,0,0,1-1.665-5.556A6.813,6.813,0,0,1,471.5-694.7a7,7,0,0,1,8.848.821,7.1,7.1,0,0,1,.338,9.662c.366,0,.68-.006.995,0a3.088,3.088,0,0,1,3.076,3.071q.02,11.729,0,23.459a3.079,3.079,0,0,1-3.184,3.06q-7.665.011-15.331,0h-.64c.335,1.012.647,1.981.989,2.938.033.094.254.166.39.169.681.017,1.363,0,2.044.009.664.005.935.282.943.954,0,.405,0,.811.005,1.216a1.266,1.266,0,0,0,.033.165h7.408a2.43,2.43,0,0,1,.437.012.735.735,0,0,1,.673.766.735.735,0,0,1-.673.766,2.7,2.7,0,0,1-.486.013H443.782c-.7,0-1.068-.268-1.069-.778s.363-.78,1.066-.78h7.5ZM461.4-676.449c0-1.524,0-3.014,0-4.5,0-.638.285-.919.922-.923q1.411-.01,2.823,0c.636,0,.922.287.924.922q.009,2.58,0,5.159c0,.635-.288.924-.923.924q-12.313,0-24.627,0c-.637,0-.923-.287-.925-.922q-.008-2.579,0-5.159c0-.638.285-.92.92-.925.925-.007,1.85,0,2.774,0,.7,0,.973.273.975.97,0,1.314,0,2.628,0,3.943,0,.172,0,.344,0,.516h.75v-6.208h-5.129a1.612,1.612,0,0,0-1.851,1.838q0,9.71,0,19.42v.513h45.14a.815.815,0,0,0,.026-.128q0-10.05,0-20.1a1.53,1.53,0,0,0-1.558-1.538c-.86-.015-1.72-.017-2.579,0a2.216,2.216,0,0,0-.789.169,7.076,7.076,0,0,1-5.717,0,1.978,1.978,0,0,0-.741-.167q-5.354-.016-10.707-.006c-.155,0-.311.014-.465.021v6.185Zm21.8,17.191H438.036c0,.4,0,.776,0,1.148,0,1.386.553,1.934,1.951,1.934h41.269c.162,0,.325.006.486-.005a1.55,1.55,0,0,0,1.455-1.442C483.226-658.157,483.2-658.692,483.2-659.259Zm-31.114-35.057v17.851h1.5v-17.851Zm22.551.022a5.415,5.415,0,0,0-4.3,3.483,5.29,5.29,0,0,0,.718,5.182c1.173-1.171,2.308-2.3,3.435-3.439a.533.533,0,0,0,.146-.335C474.643-691.005,474.64-692.608,474.64-694.295Zm-2.445,9.731a5.258,5.258,0,0,0,5.516.617,5.418,5.418,0,0,0,3.108-4.161c-1.682,0-3.285,0-4.887,0a.469.469,0,0,0-.3.115Q473.907-686.282,472.195-684.563Zm-7.213,33.036c-.327-.985-.636-1.938-.968-2.882a.414.414,0,0,0-.319-.2q-3.065-.018-6.131,0c-.108,0-.287.067-.314.144-.339.969-.656,1.945-.985,2.942Zm-5.95-24.923v-14.735h-1.5v14.735Zm-12.405-.005h1.5V-688.85h-1.5Zm29.605-17.775v4.538h4.533A5.3,5.3,0,0,0,476.232-694.23Zm-7.843,44.316H452.855v.721h15.533Zm-27.2-30.384v3.833h1.5V-680.3Zm23.294,3.852v-3.85h-1.495v3.85Zm-14.016,0v-6.188h-.721v6.188Zm5.452,0v-6.188H455.2v6.188Z" transform="translate(-436.479 695.901)" fill="#282776"/>
  <path id="Path_8850" data-name="Path 8850" d="M464.717-648.27h-.756v-6.185c.154-.007.309-.021.465-.021q5.354,0,10.707.006a1.978,1.978,0,0,1,.741.167,7.076,7.076,0,0,0,5.717,0,2.217,2.217,0,0,1,.789-.169c.859-.021,1.72-.019,2.579,0a1.531,1.531,0,0,1,1.558,1.538q.012,10.05,0,20.1a.818.818,0,0,1-.026.128h-45.14v-.513q0-9.71,0-19.42a1.612,1.612,0,0,1,1.851-1.838h5.129v6.208h-.75c0-.172,0-.344,0-.516,0-1.314,0-2.628,0-3.942,0-.7-.275-.967-.975-.97-.925,0-1.85-.006-2.774,0-.636,0-.919.287-.92.925q-.008,2.579,0,5.159c0,.635.288.921.925.922q12.314,0,24.627,0c.635,0,.921-.289.923-.924q.009-2.58,0-5.159c0-.636-.287-.918-.924-.922q-1.411-.01-2.823,0c-.637,0-.92.286-.922.923C464.713-651.284,464.717-649.794,464.717-648.27Zm7.491,6.67c.182.1.338.185.491.274q3.59,2.093,7.182,4.184a1.3,1.3,0,0,1,.61.7,2.3,2.3,0,0,0,2.417,1.422,2.364,2.364,0,0,0,2.027-1.953,2.343,2.343,0,0,0-1.278-2.459,2.313,2.313,0,0,0-2.755.528c-.106.116-.206.238-.3.352a1.18,1.18,0,0,1-.163-.063q-3.864-2.252-7.721-4.514a1.009,1.009,0,0,1-.353-.479,2.365,2.365,0,0,0-2.227-1.52,2.392,2.392,0,0,0-2.189,1.579,1.433,1.433,0,0,1-.437.6c-1.051.813-2.121,1.6-3.185,2.4l-4.617,3.462c-1.572-1.463-2.738-1.4-4.128.224-2.52-1.05-5.043-2.107-7.573-3.15a1.081,1.081,0,0,1-.652-.636,2.3,2.3,0,0,0-2.558-1.323,2.343,2.343,0,0,0-1.885,2.187,2.307,2.307,0,0,0,1.728,2.353,2.353,2.353,0,0,0,2.706-1.164c.14.055.274.106.407.16,2.422,1.008,4.846,2.01,7.259,3.037a1.167,1.167,0,0,1,.539.535,2.4,2.4,0,0,0,2.252,1.414A2.408,2.408,0,0,0,459.917-635a1.653,1.653,0,0,1,.5-.668c1.636-1.25,3.288-2.479,4.935-3.714l2.826-2.115A2.416,2.416,0,0,0,472.208-641.6Zm6.953-11.319c-1.117,0-2.235-.015-3.352.011a1.2,1.2,0,0,0-.749.248c-1.053,1.008-2.079,2.044-3.1,3.086a.752.752,0,0,0,.026,1.125.793.793,0,0,0,1.164-.122c.83-.819,1.658-1.641,2.471-2.476a.957.957,0,0,1,.759-.321c2.024.014,4.049.009,6.074.006.6,0,.961-.312.949-.8-.012-.468-.36-.755-.938-.758C481.364-652.923,480.262-652.92,479.161-652.92Zm-31.189,7.009c-1.363,0-2.726,0-4.088,0-.615,0-.969.291-.969.777s.356.778.969.778q4.088,0,8.176,0c.613,0,.97-.293.97-.778s-.356-.776-.97-.778Q450.016-645.914,447.972-645.911Zm25.689,12.461c.86,0,1.719,0,2.579,0,.576,0,.926-.3.933-.766s-.343-.786-.91-.788q-2.579-.008-5.159,0c-.581,0-.925.292-.932.765s.35.787.958.79C471.974-633.447,472.818-633.45,473.661-633.45Zm1.6-3.893c-.389,0-.779-.012-1.168,0a.772.772,0,0,0-.8.793.766.766,0,0,0,.794.754q1.143.025,2.287,0a.77.77,0,0,0,.805-.793.774.774,0,0,0-.795-.755C476.007-637.355,475.633-637.343,475.26-637.343Zm-20.289-7.012c.113,0,.227,0,.34,0a.788.788,0,0,0,.834-.768.779.779,0,0,0-.814-.786c-.194-.01-.389-.005-.584,0-.579.009-.924.295-.93.768s.342.776.91.789C454.809-644.352,454.89-644.353,454.971-644.354Z" transform="translate(-439.795 667.722)" fill="#fff"/>
  <path id="Path_8851" data-name="Path 8851" d="M486.519-581.254c0,.567.024,1.1-.006,1.634a1.55,1.55,0,0,1-1.455,1.442c-.161.012-.324.005-.486.005H443.3c-1.4,0-1.95-.548-1.951-1.934,0-.371,0-.743,0-1.147Zm-40.487,2.3c.73,0,1.46,0,2.19,0,.569-.005.919-.313.915-.784s-.353-.768-.928-.77q-2.19-.007-4.38,0c-.572,0-.919.309-.914.783s.351.766.927.771C444.571-578.947,445.3-578.952,446.031-578.952Zm5.018-.007v0a4.4,4.4,0,0,0,.486,0,.774.774,0,0,0,.716-.782.766.766,0,0,0-.738-.759,5.558,5.558,0,0,0-.875,0,.751.751,0,0,0-.712.78.751.751,0,0,0,.687.757A2.588,2.588,0,0,0,451.05-578.959Z" transform="translate(-439.795 617.897)" fill="#fff"/>
  <path id="Path_8852" data-name="Path 8852" d="M485.319-690.942h1.5v17.851h-1.5Z" transform="translate(-469.709 692.527)" fill="#fff"/>
  <path id="Path_8853" data-name="Path 8853" d="M545.905-690.874c0,1.687,0,3.289-.006,4.891a.532.532,0,0,1-.146.335c-1.127,1.138-2.262,2.268-3.435,3.439a5.29,5.29,0,0,1-.718-5.182A5.415,5.415,0,0,1,545.905-690.874Z" transform="translate(-507.744 692.481)" fill="#fff"/>
  <path id="Path_8854" data-name="Path 8854" d="M548.228-667.973q1.717-1.715,3.436-3.424a.468.468,0,0,1,.3-.115c1.6-.007,3.205,0,4.888,0a5.418,5.418,0,0,1-3.108,4.161A5.258,5.258,0,0,1,548.228-667.973Z" transform="translate(-512.512 679.311)" fill="#fff"/>
  <path id="Path_8855" data-name="Path 8855" d="M507.1-563.646h-8.717c.33-1,.647-1.974.985-2.942.027-.077.206-.144.314-.144q3.065-.012,6.131,0a.415.415,0,0,1,.319.2C506.465-565.584,506.774-564.632,507.1-563.646Z" transform="translate(-478.598 608.02)" fill="#fff"/>
  <path id="Path_8856" data-name="Path 8856" d="M503.847-666.411h-1.5v-14.735h1.5Z" transform="translate(-481.293 685.862)" fill="#fff"/>
  <path id="Path_8857" data-name="Path 8857" d="M468.229-661.444v-12.395h1.5v12.395Z" transform="translate(-458.081 680.89)" fill="#fff"/>
  <path id="Path_8858" data-name="Path 8858" d="M560.858-690.673a5.3,5.3,0,0,1,4.533,4.538h-4.533Z" transform="translate(-521.105 692.344)" fill="#fff"/>
  <path id="Path_8859" data-name="Path 8859" d="M503.251-552.016v.721H487.718v-.721Z" transform="translate(-471.341 598.003)" fill="#fff"/>
  <path id="Path_8860" data-name="Path 8860" d="M451.207-647.083h1.5v3.833h-1.5Z" transform="translate(-446.5 662.686)" fill="#fff"/>
  <path id="Path_8861" data-name="Path 8861" d="M520.908-643.227h-1.495v-3.85h1.495Z" transform="translate(-492.906 662.682)" fill="#fff"/>
  <path id="Path_8862" data-name="Path 8862" d="M478.7-648.207h-.721V-654.4h.721Z" transform="translate(-464.717 667.661)" fill="#fff"/>
  <path id="Path_8863" data-name="Path 8863" d="M495.76-648.207h-.721V-654.4h.721Z" transform="translate(-476.322 667.661)" fill="#fff"/>
  <path id="Path_8864" data-name="Path 8864" d="M475.524-621.689a2.416,2.416,0,0,1-4.03.106l-2.826,2.115c-1.648,1.235-3.3,2.464-4.935,3.714a1.653,1.653,0,0,0-.5.668,2.408,2.408,0,0,1-2.116,1.545,2.4,2.4,0,0,1-2.252-1.414,1.166,1.166,0,0,0-.539-.535c-2.413-1.027-4.837-2.029-7.259-3.037-.132-.055-.267-.105-.407-.16a2.353,2.353,0,0,1-2.706,1.164,2.307,2.307,0,0,1-1.728-2.353,2.343,2.343,0,0,1,1.885-2.187,2.3,2.3,0,0,1,2.558,1.323,1.081,1.081,0,0,0,.652.636c2.529,1.043,5.053,2.1,7.573,3.15,1.39-1.621,2.556-1.687,4.128-.224l4.617-3.462c1.064-.8,2.134-1.587,3.185-2.4a1.433,1.433,0,0,0,.437-.6,2.392,2.392,0,0,1,2.189-1.579,2.365,2.365,0,0,1,2.227,1.52,1.01,1.01,0,0,0,.353.479q3.852,2.272,7.721,4.515a1.189,1.189,0,0,0,.163.063c.1-.114.2-.236.3-.352a2.313,2.313,0,0,1,2.755-.528,2.343,2.343,0,0,1,1.277,2.459,2.364,2.364,0,0,1-2.027,1.952,2.3,2.3,0,0,1-2.417-1.422,1.3,1.3,0,0,0-.61-.7q-3.6-2.083-7.182-4.184C475.862-621.5,475.706-621.587,475.524-621.689Zm-1.265-1.19a.784.784,0,0,0-.757-.782.785.785,0,0,0-.794.745.783.783,0,0,0,.78.806A.786.786,0,0,0,474.259-622.879Zm-24.922,3.121a.785.785,0,0,0-.756-.786.779.779,0,0,0-.8.743.777.777,0,0,0,.777.809A.782.782,0,0,0,449.337-619.758Zm37.383,2.317a.783.783,0,0,0-.771-.768.784.784,0,0,0-.78.759.781.781,0,0,0,.794.793A.787.787,0,0,0,486.72-617.44ZM461.8-615.865a.784.784,0,0,0-.753-.786.783.783,0,0,0-.8.741.785.785,0,0,0,.777.811A.783.783,0,0,0,461.8-615.865Z" transform="translate(-443.11 647.81)" fill="#282776"/>
  <path id="Path_8865" data-name="Path 8865" d="M543.81-649.6c1.1,0,2.2,0,3.3,0,.578,0,.926.29.938.758.012.486-.348.8-.949.8-2.025,0-4.049.008-6.074-.006a.958.958,0,0,0-.759.321c-.813.836-1.641,1.657-2.471,2.476a.793.793,0,0,1-1.164.122.752.752,0,0,1-.026-1.125c1.019-1.042,2.045-2.078,3.1-3.086a1.2,1.2,0,0,1,.749-.248C541.575-649.612,542.693-649.6,543.81-649.6Z" transform="translate(-504.444 664.399)" fill="#282776"/>
  <path id="Path_8866" data-name="Path 8866" d="M451.3-627.659q2.044,0,4.088,0c.614,0,.97.292.97.778s-.358.778-.97.778q-4.088,0-8.176,0c-.613,0-.97-.293-.969-.778s.355-.776.969-.777C448.571-627.661,449.934-627.659,451.3-627.659Z" transform="translate(-443.12 649.471)" fill="#282776"/>
  <path id="Path_8867" data-name="Path 8867" d="M535.013-591.989c-.844,0-1.687,0-2.531,0-.608,0-.966-.3-.958-.79s.352-.764.932-.765q2.579-.006,5.159,0c.567,0,.918.315.91.787s-.357.763-.933.766C536.732-591.985,535.872-591.989,535.013-591.989Z" transform="translate(-501.146 626.261)" fill="#282776"/>
  <path id="Path_8868" data-name="Path 8868" d="M543.243-600.859c.373,0,.747-.013,1.119,0a.774.774,0,0,1,.795.755.77.77,0,0,1-.805.793q-1.143.024-2.287,0a.767.767,0,0,1-.794-.754.772.772,0,0,1,.8-.793C542.464-600.871,542.853-600.859,543.243-600.859Z" transform="translate(-507.777 631.239)" fill="#282776"/>
  <path id="Path_8869" data-name="Path 8869" d="M481.507-626.107c-.081,0-.162,0-.243,0-.568-.013-.917-.315-.91-.789s.351-.758.93-.768c.195,0,.39-.008.584,0a.779.779,0,0,1,.814.786.788.788,0,0,1-.834.768C481.734-626.1,481.62-626.108,481.507-626.107Z" transform="translate(-466.33 649.476)" fill="#282776"/>
  <path id="Path_8870" data-name="Path 8870" d="M449.356-577.37c-.73,0-1.46,0-2.19,0-.576,0-.923-.3-.927-.771s.342-.781.914-.783q2.19-.008,4.38,0c.575,0,.924.3.928.77s-.346.779-.915.784C450.816-577.365,450.086-577.37,449.356-577.37Z" transform="translate(-443.119 616.315)" fill="#282776"/>
  <path id="Path_8871" data-name="Path 8871" d="M469.3-577.39a2.588,2.588,0,0,1-.437,0,.751.751,0,0,1-.687-.757.751.751,0,0,1,.712-.78,5.558,5.558,0,0,1,.875,0,.766.766,0,0,1,.738.759.774.774,0,0,1-.716.782,4.389,4.389,0,0,1-.486,0Z" transform="translate(-458.044 616.328)" fill="#282776"/>
  <path id="Path_8872" data-name="Path 8872" d="M530.633-619.56a.786.786,0,0,1-.77.77.783.783,0,0,1-.781-.806.785.785,0,0,1,.794-.745A.784.784,0,0,1,530.633-619.56Z" transform="translate(-499.485 644.491)" fill="#fff"/>
  <path id="Path_8873" data-name="Path 8873" d="M452.655-609.8a.782.782,0,0,1-.774.766.777.777,0,0,1-.777-.809.779.779,0,0,1,.8-.743A.785.785,0,0,1,452.655-609.8Z" transform="translate(-446.429 637.856)" fill="#fff"/>
  <path id="Path_8874" data-name="Path 8874" d="M569.622-602.516a.787.787,0,0,1-.757.783.781.781,0,0,1-.794-.793.784.784,0,0,1,.78-.759A.783.783,0,0,1,569.622-602.516Z" transform="translate(-526.013 632.885)" fill="#fff"/>
  <path id="Path_8875" data-name="Path 8875" d="M491.648-597.624a.783.783,0,0,1-.773.766.785.785,0,0,1-.777-.811.783.783,0,0,1,.8-.741A.784.784,0,0,1,491.648-597.624Z" transform="translate(-472.96 629.57)" fill="#fff"/>
</svg>
