<svg id="Component_17_7" data-name="Component 17 – 7" xmlns="http://www.w3.org/2000/svg" width="53.809" height="47.157" viewBox="0 0 53.809 47.157">
  <path id="Path_8898" data-name="Path 8898" d="M368.747-1312.286H333.721c0,.744.008,1.456,0,2.167-.011.737-.176.9-.9.908-.675.006-1.351,0-2.027,0-.814,0-.954-.142-.954-.966q0-7.22,0-14.44v-4.492c-.879,0-1.7.006-2.511,0a2.3,2.3,0,0,1-2.46-2.318,2.277,2.277,0,0,1,2.444-2.259q5.541-.009,11.083,0h.761c-.144-.721-.22-1.471.416-1.876a9.5,9.5,0,0,1,1.93-.7v-1.742H340.8q-4.37,0-8.74,0c-1.528,0-2.167-.631-2.167-2.146q0-7.03,0-14.06c0-1.531.618-2.145,2.151-2.146h23.623c1.539,0,2.15.605,2.151,2.144q0,7.03,0,14.06c0,1.522-.635,2.146-2.165,2.148q-4.37,0-8.74,0h-.721v1.771a8.577,8.577,0,0,1,1.9.629c.649.4.631,1.138.458,1.879h14.052c-.246-.878-.482-1.725-.722-2.57-.172-.608-.358-1.213-.524-1.823-.187-.687.049-.987.772-1,.288-.007.577,0,.866,0l.154-.163c-.743-1.006-1.484-2.014-2.231-3.016-.1-.134-.314-.229-.337-.365a1.437,1.437,0,0,1,.013-.893.531.531,0,0,1,.876,0,14.739,14.739,0,0,1,1.412,1.619c.531.757.966,1.581,1.45,2.371a5.97,5.97,0,0,0,.367.486l.15-.069c0-.22.007-.441,0-.661a14.416,14.416,0,0,1,.71-5.487c.171-.472.41-.846.958-.623.52.212.4.653.255,1.081a13.283,13.283,0,0,0-.54,5.779c.1-.239.15-.325.177-.417a5.2,5.2,0,0,1,3.018-3.383,19.8,19.8,0,0,1,2.762-.872.6.6,0,0,1,.8.5.609.609,0,0,1-.512.746c-.688.2-1.389.356-2.059.6a4.534,4.534,0,0,0-2.28,1.734,9.976,9.976,0,0,0-.525,1.036c.607,0,1.085-.006,1.563,0,.752.012.982.318.776,1.052-.358,1.279-.729,2.553-1.093,3.83-.045.157-.075.319-.131.557h.734c2.259,0,4.518-.005,6.777,0a2.268,2.268,0,0,1,2.447,2.256,2.3,2.3,0,0,1-2.457,2.321c-1.119.009-2.238.006-3.356.01a1.365,1.365,0,0,0-.218.058c0,.215,0,.457,0,.7q0,8.93,0,17.859c0,1.194-.077,1.273-1.24,1.273-.591,0-1.182.005-1.773,0-.711-.008-.881-.184-.886-.913C368.743-1310.836,368.747-1311.548,368.747-1312.286Zm-34.987-16.8v15.414H368.7v-15.414Zm12.384-10.285a2.666,2.666,0,0,0,.3.05c3.123,0,6.245,0,9.368.014.648,0,.691-.361.69-.859q-.012-7.026-.006-14.052c0-.805-.055-.857-.868-.857H332.083c-.812,0-.882.063-.882.847q0,7.026,0,14.052c0,.8.064.861.87.862q4.431,0,8.862,0c.184,0,.367-.024.621-.042,0-.282,0-.529,0-.776,0-2.68,0-5.359,0-8.039a2.212,2.212,0,0,1,1.7-2.355,2.24,2.24,0,0,1,2.887,2.284c.021,2.7.006,5.4.006,8.1C346.144-1339.9,346.144-1339.651,346.144-1339.375Zm5.635,8.98h24.056a3.426,3.426,0,0,0,.694-.026.938.938,0,0,0,.842-1.018.941.941,0,0,0-.913-.953,3.564,3.564,0,0,0-.506-.008H327.587a2.963,2.963,0,0,0-.568.017.933.933,0,0,0-.839.891.911.911,0,0,0,.728,1.038,3.236,3.236,0,0,0,.815.059Q339.752-1330.394,351.779-1330.4Zm-19.408,19.872v-18.541h-1.193v18.541Zm38.906.007v-18.561h-1.2v18.561Zm-28.38-25.576h1.936v-2.36q0-4.876,0-9.751c0-.832-.471-1.223-1.247-1.063-.643.132-.718.614-.718,1.159q.007,5.73,0,11.461C342.87-1336.481,342.886-1336.315,342.9-1336.093Zm19.892-1.719c.351,1.23.691,2.441,1.052,3.646a.417.417,0,0,0,.311.231c.991.018,1.982.02,2.972,0a.468.468,0,0,0,.344-.264c.36-1.184.694-2.377,1.049-3.612Zm-18.981,3.715c.967,0,1.935.021,2.9-.016.212-.008.418-.217.626-.334-.2-.1-.4-.3-.6-.3q-2.87-.034-5.74,0c-.209,0-.415.218-.622.334a1.986,1.986,0,0,0,.66.3C341.958-1334.076,342.883-1334.1,343.809-1334.1Z" transform="translate(-324.87 1356.364)" fill="#282776"/>
  <path id="Path_8899" data-name="Path 8899" d="M377.5-1194.886h34.941v15.414H377.5Zm17.467,12.145a4.518,4.518,0,0,0,4.27-3,4.544,4.544,0,0,0,.144-2.612c-.1-.421-.328-.71-.8-.608s-.579.439-.475.873c.02.082.043.163.055.246a3.237,3.237,0,0,1-2.66,3.76,3.231,3.231,0,0,1-3.676-2.448,3.2,3.2,0,0,1,2.307-3.866,3.293,3.293,0,0,1,3.021.692,1.023,1.023,0,0,0,.838.063c.142-.05.272-.434.23-.631a1.2,1.2,0,0,0-.459-.569,4.516,4.516,0,0,0-5.364-.168,4.529,4.529,0,0,0-1.76,5.077A4.538,4.538,0,0,0,394.972-1182.741Z" transform="translate(-368.615 1222.159)" fill="#fff"/>
  <path id="Path_8900" data-name="Path 8900" d="M377.287-1333.064c0-.276,0-.523,0-.771,0-2.7.014-5.4-.006-8.1a2.24,2.24,0,0,0-2.887-2.284,2.212,2.212,0,0,0-1.7,2.355c-.007,2.68,0,5.359,0,8.039,0,.247,0,.494,0,.776-.254.018-.437.042-.621.042q-4.431,0-8.862,0c-.806,0-.87-.063-.87-.862q0-7.026,0-14.052c0-.784.07-.847.882-.847h23.547c.813,0,.867.052.868.857q0,7.026.006,14.052c0,.5-.042.863-.69.859-3.123-.018-6.245-.01-9.368-.014A2.611,2.611,0,0,1,377.287-1333.064Z" transform="translate(-356.013 1350.052)" fill="#fff"/>
  <path id="Path_8901" data-name="Path 8901" d="M358.2-1212.51q-12.028,0-24.056,0a3.231,3.231,0,0,1-.815-.058.911.911,0,0,1-.728-1.038.933.933,0,0,1,.839-.891,2.974,2.974,0,0,1,.568-.017h48.365a3.51,3.51,0,0,1,.506.008.941.941,0,0,1,.913.953.938.938,0,0,1-.842,1.018,3.392,3.392,0,0,1-.694.027Z" transform="translate(-331.295 1238.479)" fill="#fff"/>
  <path id="Path_8902" data-name="Path 8902" d="M363.416-1176.19h-1.193v-18.541h1.193Z" transform="translate(-355.914 1222.03)" fill="#fff"/>
  <path id="Path_8903" data-name="Path 8903" d="M593.712-1176.245h-1.2v-18.561h1.2Z" transform="translate(-547.305 1222.093)" fill="#fff"/>
  <path id="Path_8904" data-name="Path 8904" d="M431.454-1301.344c-.012-.222-.027-.389-.027-.555q0-5.73,0-11.461c0-.546.075-1.027.718-1.159.776-.16,1.245.232,1.247,1.063q.009,4.875,0,9.751v2.36Zm1.61-11.438c.007-.48-.088-.94-.673-.926s-.648.484-.644.958.073.93.675.919S433.06-1312.322,433.064-1312.782Z" transform="translate(-413.427 1321.615)" fill="#fff"/>
  <path id="Path_8905" data-name="Path 8905" d="M549.38-1246.52h5.728c-.355,1.236-.689,2.428-1.049,3.612a.469.469,0,0,1-.344.264c-.99.021-1.982.019-2.972,0a.416.416,0,0,1-.31-.23C550.071-1244.079,549.731-1245.29,549.38-1246.52Z" transform="translate(-511.461 1265.072)" fill="#fff"/>
  <path id="Path_8906" data-name="Path 8906" d="M420.1-1227.795c-.925,0-1.851.02-2.775-.014a1.991,1.991,0,0,1-.66-.3c.207-.117.413-.332.622-.334q2.869-.039,5.74,0c.2,0,.4.194.6.3-.209.117-.414.326-.626.334C422.032-1227.775,421.064-1227.8,420.1-1227.795Z" transform="translate(-401.158 1250.063)" fill="#fff"/>
  <circle id="Ellipse_31" data-name="Ellipse 31" cx="2.748" cy="2.748" r="2.748" transform="translate(23.612 32.137)" fill="#fff"/>
  <path id="Path_8907" data-name="Path 8907" d="M458.622-1167.587a4.538,4.538,0,0,1-4.326-3.186,4.529,4.529,0,0,1,1.76-5.077,4.516,4.516,0,0,1,5.364.168,1.2,1.2,0,0,1,.459.569c.041.2-.088.581-.23.631a1.023,1.023,0,0,1-.838-.063,3.293,3.293,0,0,0-3.021-.692,3.2,3.2,0,0,0-2.307,3.866,3.231,3.231,0,0,0,3.676,2.448,3.238,3.238,0,0,0,2.66-3.76c-.012-.083-.035-.165-.055-.246-.1-.434.014-.773.475-.874s.7.187.8.608a4.544,4.544,0,0,1-.144,2.612A4.517,4.517,0,0,1,458.622-1167.587Z" transform="translate(-432.265 1207.005)" fill="#282776"/>
  <path id="Path_8908" data-name="Path 8908" d="M434.659-1308.621c0,.46-.033.939-.642.951s-.671-.443-.675-.919.063-.943.644-.958S434.666-1309.1,434.659-1308.621Z" transform="translate(-415.021 1317.454)" fill="#282776"/>
</svg>
