<svg id="Component_11_4" data-name="Component 11 – 4" xmlns="http://www.w3.org/2000/svg" width="46.95" height="46.95" viewBox="0 0 46.95 46.95">
  <path id="Path_8767" data-name="Path 8767" d="M-2410.826-826.489v.616q0,10.482,0,20.964c0,.907-.21,1.12-1.106,1.12h-41.692c-.909,0-1.121-.209-1.121-1.1q0-10.506,0-21.012v-.6c-.244,0-.444,0-.645,0a.775.775,0,0,1-.868-.881c-.006-1.325,0-2.65,0-3.975q0-4.614,0-9.228c0-.835.227-1.059,1.07-1.059h9.531c0-.423,0-.826,0-1.228,0-.808.231-1.038,1.038-1.043h.476c0-.451,0-.871,0-1.291a5.305,5.305,0,0,1,5.5-5.523q5.844-.006,11.689,0a5.3,5.3,0,0,1,5.524,5.5c0,.422,0,.844,0,1.312.26,0,.477-.007.693,0a.766.766,0,0,1,.82.833c.008.236,0,.473,0,.71,0,.219,0,.439,0,.727h9.56c.805,0,1.041.236,1.042,1.041q0,6.46,0,12.919c0,1-.173,1.168-1.184,1.184C-2410.588-826.5-2410.681-826.5-2410.826-826.489Zm-.023-13.612h-43.873v12.053h16.636c0-.688,0-1.348,0-2.007,0-.743.25-.992.994-.992q4.306,0,8.613,0c.741,0,.991.251.993.994,0,.671,0,1.342,0,2.011h16.636Zm-42.348,13.619v21.14h40.828v-21.13h-15.117c0,.694,0,1.355,0,2.016,0,.715-.259.979-.961.979q-4.33,0-8.66,0c-.716,0-.975-.257-.979-.961,0-.674,0-1.348,0-2.044ZM-2426-843.937a1.134,1.134,0,0,0,.029-.147c0-.378.006-.757,0-1.135,0-.713-.259-.973-.965-.974q-2.554,0-5.108,0c-2.207,0-4.414,0-6.622,0-.443,0-.835.13-.9.586a13.038,13.038,0,0,0-.017,1.689h.429c.839,0,1.061.228,1.062,1.067,0,.389,0,.778,0,1.174h10.6V-842.7c0-1.049.156-1.209,1.186-1.226C-2426.207-843.924-2426.115-843.931-2426-843.937Zm-15.112.006c0-.5,0-.949,0-1.4a2.268,2.268,0,0,1,2.387-2.372q5.937-.007,11.875,0a2.271,2.271,0,0,1,2.4,2.41c0,.45,0,.9,0,1.351h1.514c0-.412,0-.8,0-1.192a3.8,3.8,0,0,0-4.068-4.086c-3.848,0-7.7.026-11.544-.009-2.751-.026-4.575,2.086-4,5.3Zm4.565,18.907h7.513v-4.485h-7.513Zm-3.071-17.351h-4.5v.7h4.5Zm18.172-.006h-4.491v.7h4.491Z" transform="translate(2456.261 850.739)" fill="#282776"/>
  <path id="Path_8768" data-name="Path 8768" d="M-2400.193-766.454V-754.4h-16.636c0-.669,0-1.34,0-2.011,0-.742-.252-.993-.994-.994q-4.306,0-8.613,0c-.744,0-.991.25-.994.992,0,.66,0,1.319,0,2.007h-16.636v-12.053Z" transform="translate(2445.606 777.091)" fill="#ec7f9c"/>
  <path id="Path_8769" data-name="Path 8769" d="M-2431.98-658.541h15.111c0,.7,0,1.37,0,2.044,0,.7.262.96.979.961q4.33,0,8.66,0c.7,0,.958-.265.961-.979,0-.661,0-1.322,0-2.015h15.117v21.13h-40.829Zm33.292,2.249a6.823,6.823,0,0,0-6.823,6.781,6.819,6.819,0,0,0,6.853,6.845,6.822,6.822,0,0,0,6.776-6.827A6.829,6.829,0,0,0-2398.688-656.292Zm-19.941,16.659h-11.64c-.637,0-.988.276-.984.762s.349.751.948.751q11.925,0,23.849-.015a1.461,1.461,0,0,0,.865-.369c.557-.487,1.07-1.026,1.579-1.565a.97.97,0,0,1,.78-.33c3.218.013,6.435.009,9.653.006.594,0,.941-.29.937-.763s-.35-.749-.949-.749c-3.407,0-6.814-.01-10.221.015a1.466,1.466,0,0,0-.863.371c-.556.487-1.069,1.027-1.577,1.566a.971.971,0,0,1-.782.326C-2410.9-639.637-2414.764-639.633-2418.629-639.633Zm-11.114-4.543v-.581q0-5.583,0-11.165a2.508,2.508,0,0,0-.014-.472.714.714,0,0,0-.752-.645.716.716,0,0,0-.737.662,2.565,2.565,0,0,0-.01.425q0,6.1,0,12.206c0,.865.221,1.084,1.093,1.084h14.477a2.324,2.324,0,0,0,.425-.012.717.717,0,0,0,.654-.746.714.714,0,0,0-.654-.744,2.67,2.67,0,0,0-.472-.012h-14.008Zm4.543-6.022c0-1.467,0-2.934,0-4.4,0-.655-.269-.929-.909-.934-.663-.006-1.325-.007-1.987,0-.614.007-.886.283-.887.908q-.005,4.4,0,8.8c0,.613.282.882.907.888.647.006,1.294,0,1.941,0,.672,0,.934-.271.935-.957C-2425.2-647.327-2425.2-648.763-2425.2-650.2Zm4.543,1.1c0-1.1.007-2.208,0-3.312a.761.761,0,0,0-.849-.849q-1.041-.015-2.082,0a.758.758,0,0,0-.849.849q-.01,3.312,0,6.625a.76.76,0,0,0,.848.85c.662.01,1.325.006,1.988,0,.678,0,.944-.268.946-.946C-2420.653-646.954-2420.656-648.026-2420.656-649.1Zm4.543,1.165c0-.726.006-1.451,0-2.177a.772.772,0,0,0-.868-.879q-1.017-.013-2.034,0c-.593.007-.875.281-.878.868q-.011,2.153,0,4.306a.771.771,0,0,0,.867.88q1.017.013,2.035,0a.773.773,0,0,0,.879-.869C-2416.106-646.514-2416.113-647.224-2416.113-647.934Zm6.062,5.272c.962,0,1.924,0,2.886,0,.554,0,.895-.3.892-.76s-.342-.75-.9-.751q-2.886-.006-5.773,0c-.558,0-.894.3-.892.759s.34.749.9.752C-2411.975-642.659-2411.013-642.662-2410.051-642.662Zm1.132-3.786c-.6,0-1.2-.007-1.8,0a.762.762,0,0,0-.848.754.76.76,0,0,0,.847.755q1.8.012,3.6,0a.763.763,0,0,0,.849-.754.762.762,0,0,0-.848-.755C-2407.72-646.455-2408.319-646.448-2408.919-646.448Z" transform="translate(2435.044 682.797)" fill="#fff"/>
  <path id="Path_8770" data-name="Path 8770" d="M-2346.947-833.5h-1.439c-.574-3.214,1.25-5.326,4-5.3,3.848.036,7.7.008,11.544.009a3.8,3.8,0,0,1,4.068,4.086c0,.39,0,.78,0,1.192h-1.515c0-.451,0-.9,0-1.351a2.27,2.27,0,0,0-2.4-2.41q-5.938-.006-11.875,0a2.268,2.268,0,0,0-2.387,2.372C-2346.95-834.446-2346.947-833.992-2346.947-833.5Z" transform="translate(2362.093 840.304)" fill="#ec7f9c"/>
  <path id="Path_8771" data-name="Path 8771" d="M-2300.081-678.043v-4.485h7.513v4.485Z" transform="translate(2319.792 703.757)" fill="#fff"/>
  <path id="Path_8772" data-name="Path 8772" d="M-2355.585-784.472v.7h-4.5v-.7Z" transform="translate(2372.225 792.835)" fill="#fff"/>
  <path id="Path_8773" data-name="Path 8773" d="M-2211.514-784.523v.7H-2216v-.7Z" transform="translate(2246.327 792.88)" fill="#fff"/>
  <path id="Path_8774" data-name="Path 8774" d="M-2215.421-640.72a6.829,6.829,0,0,1,6.806,6.8,6.823,6.823,0,0,1-6.776,6.827,6.819,6.819,0,0,1-6.853-6.845A6.823,6.823,0,0,1-2215.421-640.72Zm-4.277,9.965a1.488,1.488,0,0,0,.14-.1c.781-.779,1.515-1.612,2.355-2.321a2.674,2.674,0,0,0,1.039-2.486c-.1-1.139-.022-2.293-.022-3.495a5.211,5.211,0,0,0-4.086,3.139A5.19,5.19,0,0,0-2219.7-630.755Zm1.093,1.1a5.208,5.208,0,0,0,5.427.532,5.192,5.192,0,0,0,3-4.023c-1.636,0-3.209,0-4.782.006a.456.456,0,0,0-.282.134C-2216.354-631.91-2217.455-630.807-2218.605-629.656Zm3.946-5.028h4.425c-.069-2.075-2.592-4.569-4.425-4.379Z" transform="translate(2251.778 667.225)" fill="#282776"/>
  <path id="Path_8775" data-name="Path 8775" d="M-2413.595-524.465c3.864,0,7.729,0,11.593.007a.971.971,0,0,0,.782-.326c.508-.539,1.021-1.079,1.577-1.566a1.466,1.466,0,0,1,.864-.371c3.407-.025,6.814-.017,10.221-.015.6,0,.945.278.949.749s-.342.763-.937.763c-3.218,0-6.436.006-9.653-.006a.97.97,0,0,0-.78.33c-.509.539-1.022,1.078-1.579,1.565a1.461,1.461,0,0,1-.865.369q-11.924.029-23.849.015c-.6,0-.944-.279-.948-.751s.347-.762.984-.762Z" transform="translate(2430.011 567.629)" fill="#282776"/>
  <path id="Path_8776" data-name="Path 8776" d="M-2424.76-633.784h14.008a2.664,2.664,0,0,1,.472.012.713.713,0,0,1,.654.744.717.717,0,0,1-.654.745,2.324,2.324,0,0,1-.425.012h-14.477c-.872,0-1.093-.219-1.093-1.084q0-6.1,0-12.206a2.538,2.538,0,0,1,.01-.425.715.715,0,0,1,.737-.662.713.713,0,0,1,.752.645,2.488,2.488,0,0,1,.014.472q0,5.583,0,11.165Z" transform="translate(2430.062 672.405)" fill="#282776"/>
  <path id="Path_8777" data-name="Path 8777" d="M-2404.471-629.41c0,1.435,0,2.871,0,4.306,0,.686-.263.952-.935.957-.647,0-1.293.006-1.94,0-.625-.006-.906-.275-.907-.888q-.007-4.4,0-8.8c0-.625.273-.9.887-.908.662-.007,1.325-.006,1.987,0,.64.006.907.279.909.934C-2404.469-632.344-2404.471-630.877-2404.471-629.41Zm-2.249-3.8v7.524h.7v-7.524Z" transform="translate(2414.317 662.009)" fill="#282776"/>
  <path id="Path_8778" data-name="Path 8778" d="M-2368.477-612.592c0,1.073,0,2.145,0,3.218,0,.679-.268.942-.946.946-.663,0-1.325.008-1.988,0a.76.76,0,0,1-.848-.85q-.01-3.312,0-6.625a.758.758,0,0,1,.849-.849q1.041-.015,2.082,0a.761.761,0,0,1,.849.849C-2368.471-614.8-2368.477-613.7-2368.477-612.592Zm-2.236-2.633v5.259h.694v-5.259Z" transform="translate(2382.866 646.291)" fill="#282776"/>
  <path id="Path_8779" data-name="Path 8779" d="M-2332.482-595.694c0,.71.006,1.42,0,2.129a.773.773,0,0,1-.879.869q-1.017.012-2.035,0a.771.771,0,0,1-.867-.88q-.009-2.153,0-4.306c0-.587.285-.861.878-.868q1.017-.011,2.034,0a.772.772,0,0,1,.868.879C-2332.476-597.145-2332.482-596.42-2332.482-595.694Zm-1.546,1.465v-2.988h-.7v2.988Z" transform="translate(2351.414 630.557)" fill="#282776"/>
  <path id="Path_8780" data-name="Path 8780" d="M-2284.433-543.219c-.963,0-1.925,0-2.887,0-.559,0-.9-.293-.9-.752s.334-.758.891-.759q2.887-.006,5.773,0c.558,0,.9.293.9.751s-.338.756-.892.76C-2282.509-543.215-2283.471-543.219-2284.433-543.219Z" transform="translate(2309.427 583.354)" fill="#282776"/>
  <path id="Path_8781" data-name="Path 8781" d="M-2267.573-562.74c.6,0,1.2-.007,1.8,0a.763.763,0,0,1,.848.755.763.763,0,0,1-.849.754q-1.8.012-3.6,0a.76.76,0,0,1-.847-.755.762.762,0,0,1,.848-.754C-2268.771-562.746-2268.172-562.74-2267.573-562.74Z" transform="translate(2293.699 599.089)" fill="#282776"/>
  <path id="Path_8782" data-name="Path 8782" d="M-2209.294-619.921a5.189,5.189,0,0,1-.574-5.261,5.211,5.211,0,0,1,4.086-3.139c0,1.2-.075,2.356.022,3.495a2.674,2.674,0,0,1-1.039,2.486c-.84.709-1.574,1.543-2.355,2.321A1.439,1.439,0,0,1-2209.294-619.921Z" transform="translate(2241.375 656.391)" fill="#fff"/>
  <path id="Path_8783" data-name="Path 8783" d="M-2193.415-577.226c1.151-1.151,2.252-2.254,3.359-3.352a.456.456,0,0,1,.282-.134c1.573-.008,3.146-.006,4.782-.006a5.192,5.192,0,0,1-3,4.023A5.207,5.207,0,0,1-2193.415-577.226Z" transform="translate(2226.587 614.795)" fill="#ec7f9c"/>
  <path id="Path_8784" data-name="Path 8784" d="M-2162.145-623.284v-4.379c1.833-.19,4.356,2.3,4.425,4.379Z" transform="translate(2199.264 655.825)" fill="#fff"/>
  <path id="Path_8785" data-name="Path 8785" d="M-2396.067-622.57h.7v7.524h-.7Z" transform="translate(2403.664 651.366)" fill="#fff"/>
  <path id="Path_8786" data-name="Path 8786" d="M-2359.969-604.592h.694v5.259h-.694Z" transform="translate(2372.121 635.657)" fill="#ec7f9c"/>
  <path id="Path_8787" data-name="Path 8787" d="M-2323.356-583.573h-.7v-2.988h.7Z" transform="translate(2340.742 619.901)" fill="#fff"/>
</svg>
