<svg xmlns="http://www.w3.org/2000/svg" width="48.102" height="48.102" viewBox="0 0 48.102 48.102">
  <g id="Group_2719" data-name="Group 2719" transform="translate(-559 -60.898)">
    <g id="Component_12_9" data-name="Component 12 – 9" transform="translate(559 60.898)">
      <path id="Path_8842" data-name="Path 8842" d="M256.1-682.422a2.907,2.907,0,0,1-1.362,1.817,8.268,8.268,0,0,1-1.789.511.781.781,0,0,0-.581.446,1.448,1.448,0,0,0,.172,1.837,2.74,2.74,0,0,1-.328,3.954c-.386.388-.764.787-1.175,1.147a2.7,2.7,0,0,1-3.146.322,1.676,1.676,0,0,1-.469-.307c-.638-.742-1.316-.477-1.992-.091a.6.6,0,0,0-.23.355c-.1.394-.143.8-.245,1.193a2.672,2.672,0,0,1-2.532,2.069c-.656.028-1.315.028-1.971,0a2.71,2.71,0,0,1-2.561-2.1,1.488,1.488,0,0,1-.085-.412c.042-.848-.428-1.244-1.185-1.461a.693.693,0,0,0-.682.1,4.237,4.237,0,0,1-1.943.981,2.58,2.58,0,0,1-2.1-.594,18.426,18.426,0,0,1-1.594-1.588,2.673,2.673,0,0,1-.3-3.107,2.416,2.416,0,0,1,.36-.547,1.222,1.222,0,0,0,.184-1.632.88.88,0,0,0-.742-.575,3.415,3.415,0,0,1-2.25-.922,2.635,2.635,0,0,1-.773-1.761c-.017-.641-.028-1.284-.007-1.924a2.731,2.731,0,0,1,2.255-2.68,4.579,4.579,0,0,1,.647-.107,1.021,1.021,0,0,0,.912-.692,1.3,1.3,0,0,0-.231-1.548,2.807,2.807,0,0,1,.353-4.1c.354-.354.7-.719,1.074-1.05a2.719,2.719,0,0,1,3.266-.3,1.486,1.486,0,0,1,.388.26c.634.74,1.313.474,1.987.091a.615.615,0,0,0,.24-.36c.082-.317.115-.646.18-.967a2.734,2.734,0,0,1,2.037-2.223.65.65,0,0,0,.149-.093h2.724a2.9,2.9,0,0,1,2.092,1.771,6.418,6.418,0,0,1,.281,1.276.922.922,0,0,0,.575.738,1.244,1.244,0,0,0,1.661-.2,2.332,2.332,0,0,1,.469-.308,2.683,2.683,0,0,1,3.149.253,16.123,16.123,0,0,1,1.588,1.592,2.67,2.67,0,0,1,.246,3.148c-.207.348-.457.671-.683,1.009-.059.088-.162.212-.137.281a5.146,5.146,0,0,0,.52,1.2c.114.165.466.193.717.231a3.023,3.023,0,0,1,2.115.974,9.323,9.323,0,0,1,.746,1.383Zm-5.3-9.2a2.551,2.551,0,0,0-.238-.347c-.314-.328-.645-.639-.958-.967a.467.467,0,0,0-.7-.055c-.456.331-.924.644-1.381.973a1.379,1.379,0,0,1-1.5.137c-.708-.325-1.433-.615-2.161-.895a1.33,1.33,0,0,1-.915-1.086c-.093-.555-.2-1.108-.286-1.664-.054-.344-.207-.534-.587-.518-.438.019-.877.012-1.315,0a.467.467,0,0,0-.535.458c-.084.541-.2,1.077-.277,1.618a1.409,1.409,0,0,1-.975,1.2c-.715.269-1.425.555-2.118.876a1.369,1.369,0,0,1-1.5-.128c-.431-.311-.879-.6-1.3-.923a.543.543,0,0,0-.853.055c-.271.3-.563.589-.862.864a.51.51,0,0,0-.063.78c.324.441.624.9.944,1.343a1.374,1.374,0,0,1,.142,1.5c-.326.708-.623,1.43-.9,2.159a1.33,1.33,0,0,1-1.084.916c-.555.095-1.107.2-1.663.287-.35.054-.526.214-.508.59.021.437.011.876,0,1.314a.463.463,0,0,0,.455.535c.541.082,1.076.2,1.617.278a1.435,1.435,0,0,1,1.223,1.016c.254.687.528,1.369.841,2.031a1.418,1.418,0,0,1-.141,1.58c-.316.427-.6.876-.921,1.3a.507.507,0,0,0,.051.778q.465.43.9.9a.508.508,0,0,0,.778.058c.427-.317.875-.6,1.3-.921a1.413,1.413,0,0,1,1.579-.142c.661.315,1.343.59,2.031.84a1.449,1.449,0,0,1,1.028,1.265c.072.526.191,1.046.271,1.571a.464.464,0,0,0,.533.458c.438-.01.877-.018,1.315,0,.375.017.538-.156.593-.507.084-.541.2-1.076.279-1.617a1.371,1.371,0,0,1,.961-1.155c.713-.273,1.422-.561,2.116-.88a1.378,1.378,0,0,1,1.5.138c.444.321.9.617,1.342.946a.524.524,0,0,0,.813-.082,10.607,10.607,0,0,1,.83-.829.542.542,0,0,0,.059-.852c-.3-.4-.564-.828-.869-1.224a1.458,1.458,0,0,1-.15-1.662,20.04,20.04,0,0,0,.826-1.986,1.438,1.438,0,0,1,1.261-1.029c.511-.072,1.014-.194,1.525-.262.362-.048.526-.212.513-.583-.016-.422-.019-.846,0-1.267a.511.511,0,0,0-.508-.6c-.556-.088-1.108-.2-1.663-.287a1.325,1.325,0,0,1-1.092-.907c-.28-.728-.569-1.453-.9-2.161a1.38,1.38,0,0,1,.128-1.5c.319-.445.631-.895.941-1.346C250.655-691.352,250.715-691.478,250.8-691.627Z" transform="translate(-208.002 698.486)" fill="#282776"/>
      <path id="Path_8843" data-name="Path 8843" d="M147.066-634.626a2.87,2.87,0,0,1,1.973.756,1.926,1.926,0,0,0,2.519.352c.554-.309.894-.556.931-1.19a5.5,5.5,0,0,1,.192-1.06,1.246,1.246,0,0,1,1.368-.89,1.207,1.207,0,0,1,1,1.286c-.123.929-.3,1.85-.481,2.771a1.2,1.2,0,0,1-.833.878c-.968.392-1.937.784-2.895,1.2a1.342,1.342,0,0,1-1.415-.118c-.626-.443-1.252-.885-1.884-1.319a.814.814,0,0,0-1.246.113c-.436.428-.869.858-1.294,1.3a.778.778,0,0,0-.1,1.17c.416.607.833,1.212,1.272,1.8a1.507,1.507,0,0,1,.107,1.708,22.974,22.974,0,0,0-1.035,2.506,1.533,1.533,0,0,1-1.332,1.141c-.711.107-1.419.237-2.125.373-.562.109-.752.337-.759.893q-.012.939,0,1.879c.007.567.222.807.8.91.723.129,1.447.26,2.172.379a1.438,1.438,0,0,1,1.207,1.03c.331.907.707,1.8,1.11,2.678a1.439,1.439,0,0,1-.118,1.582c-.441.608-.871,1.224-1.3,1.844a.779.779,0,0,0,.092,1.171c.446.462.9.917,1.362,1.361a.764.764,0,0,0,1.134.085q.95-.648,1.883-1.321a1.415,1.415,0,0,1,1.541-.112c.894.406,1.8.789,2.721,1.129a1.417,1.417,0,0,1,1,1.176q.184,1.087.378,2.172c.111.625.342.818.985.822q.869.006,1.738,0c.63,0,.848-.174.968-.783.13-.66.266-1.319.353-1.985a1.622,1.622,0,0,1,1.273-1.483,16.023,16.023,0,0,0,2.373-.99,1.515,1.515,0,0,1,1.747.112c.575.433,1.171.837,1.765,1.244a.788.788,0,0,0,1.206-.1q.655-.64,1.295-1.3a.8.8,0,0,0,.114-1.207q-.637-.929-1.3-1.844a1.438,1.438,0,0,1-.11-1.583c.407-.876.776-1.772,1.111-2.678a1.424,1.424,0,0,1,1.167-1.015c.709-.121,1.415-.26,2.126-.368a2.186,2.186,0,0,1,.789,0,1.182,1.182,0,0,1,.908,1.166,1.233,1.233,0,0,1-.922,1.163c-.5.118-1.012.207-1.522.277a.507.507,0,0,0-.5.4,2.228,2.228,0,0,1-.286.74,1.35,1.35,0,0,0,.2,1.893,4.55,4.55,0,0,1,.8,1.367,2.891,2.891,0,0,1-.508,3,19.46,19.46,0,0,1-1.911,1.935,3.069,3.069,0,0,1-3.818.305,13.528,13.528,0,0,1-1.2-.828.691.691,0,0,0-.88-.093,4.759,4.759,0,0,1-1.122.468.7.7,0,0,0-.553.7,12.778,12.778,0,0,1-.273,1.474,3.137,3.137,0,0,1-3.048,2.455c-.673.02-1.346.009-2.019.005a3.223,3.223,0,0,1-3.371-2.829,9.932,9.932,0,0,1-.185-1.109.682.682,0,0,0-.557-.69c-.445-.139-.859-.374-1.3-.529a.653.653,0,0,0-.5.042c-.518.321-1,.708-1.519,1.019a3.056,3.056,0,0,1-3.623-.329,23.337,23.337,0,0,1-1.864-1.852,3.063,3.063,0,0,1-.339-3.738c.3-.5.667-.947.968-1.44a.715.715,0,0,0,.053-.537,11.447,11.447,0,0,0-.594-1.426.79.79,0,0,0-.452-.372c-.514-.131-1.047-.183-1.565-.3a3.159,3.159,0,0,1-2.539-3.127c-.014-.673-.009-1.346,0-2.019a3.208,3.208,0,0,1,2.75-3.294c.538-.1,1.195-.042,1.581-.338s.445-.96.715-1.425a.842.842,0,0,0-.113-1.085,10.063,10.063,0,0,1-.868-1.28,3.036,3.036,0,0,1,.308-3.509,26.733,26.733,0,0,1,1.989-1.991A2.928,2.928,0,0,1,147.066-634.626Z" transform="translate(-138.576 649.829)" fill="#282776"/>
      <path id="Path_8844" data-name="Path 8844" d="M194.52-580.445a8.216,8.216,0,0,1-8.339-8.967,8.2,8.2,0,0,1,8.033-7.353,1.258,1.258,0,0,1,1.311,1.144,1.2,1.2,0,0,1-1.162,1.274,6.033,6.033,0,0,0-3.789,1.417,5.711,5.711,0,0,0-1.591,6.4,5.7,5.7,0,0,0,5.408,3.637,5.681,5.681,0,0,0,5.614-5.3,1.821,1.821,0,0,1,.39-1.267,1.209,1.209,0,0,1,1.3-.276,1.243,1.243,0,0,1,.78,1.18,8.219,8.219,0,0,1-5.13,7.527A7.887,7.887,0,0,1,194.52-580.445Z" transform="translate(-176.02 618.413)" fill="#282776"/>
      <path id="Path_8845" data-name="Path 8845" d="M259.819-682.613c-.085.149-.144.275-.222.388-.31.451-.622.9-.941,1.346a1.379,1.379,0,0,0-.128,1.5c.326.708.615,1.434.9,2.161a1.325,1.325,0,0,0,1.092.907c.555.091,1.108.2,1.663.287a.511.511,0,0,1,.508.6c-.02.422-.017.846,0,1.267.014.371-.15.535-.513.583-.511.068-1.014.19-1.525.262a1.438,1.438,0,0,0-1.261,1.03,20.058,20.058,0,0,1-.826,1.986,1.457,1.457,0,0,0,.15,1.662c.3.4.564.828.869,1.225a.541.541,0,0,1-.059.852,10.63,10.63,0,0,0-.83.829.524.524,0,0,1-.813.082c-.437-.329-.9-.625-1.342-.946a1.378,1.378,0,0,0-1.5-.138c-.694.318-1.4.607-2.116.88a1.371,1.371,0,0,0-.961,1.155c-.079.541-.195,1.077-.279,1.617-.054.351-.218.524-.593.507-.437-.02-.877-.013-1.315,0a.464.464,0,0,1-.533-.458c-.08-.525-.2-1.045-.271-1.571a1.449,1.449,0,0,0-1.028-1.265c-.688-.25-1.37-.525-2.031-.84a1.413,1.413,0,0,0-1.579.142c-.428.316-.876.6-1.3.921a.508.508,0,0,1-.778-.058q-.429-.466-.9-.9a.507.507,0,0,1-.051-.778c.316-.427.6-.876.921-1.3a1.418,1.418,0,0,0,.141-1.58c-.313-.662-.587-1.344-.841-2.031a1.435,1.435,0,0,0-1.223-1.016c-.541-.079-1.077-.2-1.617-.278a.463.463,0,0,1-.455-.535c.011-.438.02-.877,0-1.314-.018-.376.158-.536.508-.59.556-.086,1.109-.192,1.663-.287a1.33,1.33,0,0,0,1.084-.916c.278-.728.574-1.451.9-2.159a1.374,1.374,0,0,0-.142-1.5c-.321-.444-.62-.9-.944-1.343a.511.511,0,0,1,.063-.78c.3-.276.591-.562.862-.864a.543.543,0,0,1,.853-.055c.422.323.87.612,1.3.923a1.369,1.369,0,0,0,1.5.128c.693-.321,1.4-.607,2.118-.876a1.409,1.409,0,0,0,.975-1.2c.08-.541.193-1.077.277-1.618a.468.468,0,0,1,.535-.458c.438.01.877.017,1.315,0,.38-.017.533.174.587.518.087.556.192,1.109.286,1.664a1.33,1.33,0,0,0,.915,1.086c.728.279,1.453.57,2.161.895a1.379,1.379,0,0,0,1.5-.137c.457-.329.925-.642,1.381-.973a.468.468,0,0,1,.7.055c.313.329.644.64.958.968A2.547,2.547,0,0,1,259.819-682.613Zm-9.362,13.634a5.829,5.829,0,0,0,5.831-5.815,5.847,5.847,0,0,0-5.812-5.843,5.83,5.83,0,0,0-5.846,5.847A5.813,5.813,0,0,0,250.457-668.978Z" transform="translate(-217.022 689.472)" fill="#fff"/>
      <path id="Path_8846" data-name="Path 8846" d="M274.132-645.312a5.813,5.813,0,0,1-5.827-5.811,5.83,5.83,0,0,1,5.846-5.847,5.847,5.847,0,0,1,5.812,5.843A5.829,5.829,0,0,1,274.132-645.312Zm-.073-2.446a3.4,3.4,0,0,0,3.46-3.344,3.417,3.417,0,0,0-3.345-3.424,3.4,3.4,0,0,0-3.423,3.331A3.372,3.372,0,0,0,274.059-647.758Z" transform="translate(-240.696 665.805)" fill="#282776"/>
      <path id="Path_8847" data-name="Path 8847" d="M283.1-638.724a3.372,3.372,0,0,1-3.309-3.437,3.4,3.4,0,0,1,3.423-3.331,3.416,3.416,0,0,1,3.345,3.424A3.4,3.4,0,0,1,283.1-638.724Z" transform="translate(-249.741 656.771)" fill="#fff"/>
    </g>
  </g>
</svg>
