<svg xmlns="http://www.w3.org/2000/svg" width="47.093" height="47.096" viewBox="0 0 47.093 47.096">
  <g id="Group_2720" data-name="Group 2720" transform="translate(-839.32 -66.941)">
    <g id="Component_8_10" data-name="Component 8 – 10" transform="translate(839.32 66.941)">
      <path id="Path_8813" data-name="Path 8813" d="M-1040.567,363.334h-26.857a.987.987,0,0,0-.167-.071A4.118,4.118,0,0,1-1071.01,359q0-8.093.009-16.186a5.005,5.005,0,0,1,.221-1.489,4.093,4.093,0,0,1,3.857-2.817c.806-.013,1.612,0,2.443,0v-.564c0-2.085-.007-4.169.006-6.253a5.1,5.1,0,0,1,.143-1.226,4.1,4.1,0,0,1,3.934-3.083c.806-.013,1.612,0,2.447,0v-.561q0-3.081,0-6.162a4.148,4.148,0,0,1,4.4-4.408q6.69,0,13.38,0c4.016,0,8.032-.014,12.047.007a4.019,4.019,0,0,1,3.87,2.536,8.534,8.534,0,0,1,.331,1.045v17.659a1.113,1.113,0,0,0-.07.168,4.127,4.127,0,0,1-4.316,3.419h-2.144v.539q0,3.127,0,6.254a4.145,4.145,0,0,1-4.337,4.336c-.716,0-1.432,0-2.193,0v.537c0,2.161.012,4.323-.005,6.484a4.112,4.112,0,0,1-2.751,3.864C-1040.008,363.187-1040.29,363.254-1040.567,363.334Zm.828-16.518h-28.512v.45q0,5.838,0,11.676a1.428,1.428,0,0,0,1.63,1.633h25.237c1.13,0,1.644-.522,1.644-1.665q0-5.815,0-11.63Zm-21.971-8.315h.587q9.887,0,19.774,0a4.142,4.142,0,0,1,4.369,4.349q0,3.035,0,6.07v.472a.676.676,0,0,0,.135.047c.659,0,1.318.007,1.977.007,1.137,0,1.658-.518,1.658-1.652q0-5.817,0-11.634v-.471h-28.5Zm35.031-13.947h-28.489v2.818h.562q9.91,0,19.82,0a4.136,4.136,0,0,1,4.335,4.336q.005,3.035,0,6.07v.538c.744,0,1.445,0,2.146,0a1.431,1.431,0,0,0,1.625-1.64q0-5.679,0-11.358Zm-6.531,8.314c0-.4,0-.764,0-1.13a1.422,1.422,0,0,0-1.61-1.607h-18.6v2.737ZM-1039.74,344c0-.4,0-.764,0-1.129a1.421,1.421,0,0,0-1.61-1.608h-18.6V344Zm13.061-22.258c0-.4,0-.763,0-1.129a1.422,1.422,0,0,0-1.609-1.608h-17.682v2.737Zm-28.51-.011h6.413v-2.717c-1.75,0-3.478-.025-5.205.013a1.312,1.312,0,0,0-1.2,1.3C-1055.206,320.778-1055.189,321.237-1055.189,321.728Zm-6.53,11.129h5.493V330.14c-1.443,0-2.865-.028-4.285.013a1.315,1.315,0,0,0-1.2,1.3C-1061.736,331.906-1061.719,332.366-1061.719,332.857Zm-1.023,8.409c-1.448,0-2.854-.02-4.26.009a1.285,1.285,0,0,0-1.218,1.128,14.52,14.52,0,0,0-.012,1.58h5.49Z" transform="translate(1071.013 -316.238)" fill="#282776"/>
      <path id="Path_8814" data-name="Path 8814" d="M-1019.989,565.581v.463q0,5.815,0,11.63c0,1.144-.514,1.665-1.644,1.666h-25.237a1.429,1.429,0,0,1-1.63-1.633q0-5.838,0-11.676v-.45Zm-20.723,11c1.179,0,2.358,0,3.537,0a1.4,1.4,0,0,0,1.549-1.527q.006-2.618,0-5.236a1.39,1.39,0,0,0-1.516-1.513q-3.537-.005-7.074,0a1.4,1.4,0,0,0-1.526,1.548q0,2.6,0,5.19a1.4,1.4,0,0,0,1.539,1.537C-1043.039,576.583-1041.875,576.581-1040.712,576.581Zm13.827-5.518c.872,0,1.744,0,2.616,0a1.4,1.4,0,0,0,1.518-1.371,1.389,1.389,0,0,0-1.5-1.386q-2.639-.007-5.277,0a1.391,1.391,0,0,0-1.5,1.392,1.391,1.391,0,0,0,1.479,1.364C-1028.659,571.067-1027.771,571.062-1026.884,571.062Zm0,2.759c-.887,0-1.774,0-2.662,0a1.391,1.391,0,0,0-1.475,1.367,1.383,1.383,0,0,0,1.453,1.389q2.685.011,5.369,0a1.38,1.38,0,0,0,1.452-1.389,1.388,1.388,0,0,0-1.476-1.366C-1025.113,573.817-1026,573.821-1026.888,573.821Z" transform="translate(1051.262 -535.003)" fill="#fff"/>
      <path id="Path_8815" data-name="Path 8815" d="M-995.157,477.65v-2.813h28.5v.471q0,5.817,0,11.634c0,1.134-.521,1.652-1.658,1.652-.659,0-1.318,0-1.977-.007a.657.657,0,0,1-.136-.047v-.472q0-3.035,0-6.07a4.142,4.142,0,0,0-4.369-4.349q-9.887,0-19.774,0Z" transform="translate(1004.459 -455.387)" fill="#fff"/>
      <path id="Path_8816" data-name="Path 8816" d="M-913.321,384.051v.764q0,5.679,0,11.359a1.431,1.431,0,0,1-1.624,1.64c-.7,0-1.4,0-2.146,0v-.538q0-3.035,0-6.07a4.136,4.136,0,0,0-4.335-4.336q-9.91,0-19.82,0h-.562v-2.818Z" transform="translate(957.655 -375.735)" fill="#fff"/>
      <path id="Path_8817" data-name="Path 8817" d="M-907.351,432.263h-20.212v-2.737h18.6a1.422,1.422,0,0,1,1.611,1.607C-907.351,431.5-907.351,431.863-907.351,432.263Z" transform="translate(945.155 -415.632)" fill="#fff"/>
      <path id="Path_8818" data-name="Path 8818" d="M-960.6,523.013h-20.212v-2.737h18.6a1.422,1.422,0,0,1,1.61,1.608C-960.6,522.249-960.6,522.614-960.6,523.013Z" transform="translate(991.875 -495.254)" fill="#fff"/>
      <path id="Path_8819" data-name="Path 8819" d="M-847.523,341.512h-19.292v-2.737h17.682a1.422,1.422,0,0,1,1.609,1.608C-847.522,340.749-847.523,341.114-847.523,341.512Z" transform="translate(891.857 -336.011)" fill="#fff"/>
      <path id="Path_8820" data-name="Path 8820" d="M-942.026,341.507c0-.491-.016-.95,0-1.408a1.312,1.312,0,0,1,1.2-1.3c1.727-.038,3.455-.013,5.2-.013v2.717Z" transform="translate(957.85 -336.017)" fill="#fff"/>
      <path id="Path_8821" data-name="Path 8821" d="M-995.276,432.246c0-.492-.016-.951,0-1.408a1.315,1.315,0,0,1,1.2-1.3c1.42-.041,2.842-.013,4.285-.013v2.717Z" transform="translate(1004.57 -415.628)" fill="#fff"/>
      <path id="Path_8822" data-name="Path 8822" d="M-1042.979,520.277v2.717h-5.49a14.49,14.49,0,0,1,.012-1.58,1.285,1.285,0,0,1,1.218-1.128C-1045.833,520.257-1044.426,520.277-1042.979,520.277Z" transform="translate(1051.249 -495.249)" fill="#fff"/>
      <path id="Path_8823" data-name="Path 8823" d="M-1020.98,596.044c-1.164,0-2.327,0-3.491,0a1.4,1.4,0,0,1-1.539-1.537q0-2.6,0-5.19a1.4,1.4,0,0,1,1.526-1.549q3.537,0,7.074,0a1.39,1.39,0,0,1,1.516,1.513q.007,2.618,0,5.236a1.4,1.4,0,0,1-1.549,1.527C-1018.622,596.046-1019.8,596.044-1020.98,596.044Zm-2.25-2.791h4.541v-2.7h-4.541Z" transform="translate(1031.53 -554.467)" fill="#282776"/>
      <path id="Path_8824" data-name="Path 8824" d="M-901.848,590.522c-.887,0-1.775,0-2.662,0a1.391,1.391,0,0,1-1.478-1.364,1.391,1.391,0,0,1,1.5-1.392q2.639-.007,5.277,0a1.389,1.389,0,0,1,1.5,1.386,1.4,1.4,0,0,1-1.518,1.371C-900.1,590.525-900.976,590.522-901.848,590.522Z" transform="translate(926.225 -554.463)" fill="#282776"/>
      <path id="Path_8825" data-name="Path 8825" d="M-901.851,632.764c.887,0,1.774,0,2.662,0a1.388,1.388,0,0,1,1.476,1.366,1.38,1.38,0,0,1-1.452,1.389q-2.685.011-5.369,0a1.383,1.383,0,0,1-1.453-1.389,1.39,1.39,0,0,1,1.475-1.367C-903.625,632.76-902.738,632.764-901.851,632.764Z" transform="translate(926.225 -593.946)" fill="#282776"/>
      <path id="Path_8826" data-name="Path 8826" d="M-1003.33,613.175v-2.7h4.541v2.7Z" transform="translate(1011.63 -574.389)" fill="#fff"/>
    </g>
  </g>
</svg>
