<svg id="Group_2664" data-name="Group 2664" xmlns="http://www.w3.org/2000/svg" width="15.85" height="15.854" viewBox="0 0 15.85 15.854">
  <path id="Path_8984" data-name="Path 8984" d="M1966.586-1045.724c.24.028.48.052.72.085a7.885,7.885,0,0,1,3.788,1.6.66.66,0,0,1,.169.929.651.651,0,0,1-.943.136,7.142,7.142,0,0,0-1.814-1.015,6.61,6.61,0,0,0-3.135-.352,6.37,6.37,0,0,0-3.319,1.433,6.463,6.463,0,0,0-2.333,3.948,6.312,6.312,0,0,0,.654,4.228,6.452,6.452,0,0,0,4.713,3.438,6.278,6.278,0,0,0,4.805-1.024,6.445,6.445,0,0,0,2.892-4.824,6.432,6.432,0,0,0-.575-3.435.681.681,0,0,1,.124-.873.646.646,0,0,1,1.032.24,11.253,11.253,0,0,1,.519,1.435,13.808,13.808,0,0,1,.233,1.369c.006.04.018.079.027.118v.96c-.01.055-.021.109-.028.164-.05.341-.078.687-.151,1.023a7.7,7.7,0,0,1-2.942,4.637,7.687,7.687,0,0,1-6.469,1.452,7.652,7.652,0,0,1-4.616-2.922,7.709,7.709,0,0,1-1.6-5.613,7.66,7.66,0,0,1,1.934-4.431,7.782,7.782,0,0,1,4.584-2.578c.3-.053.6-.083.9-.123Z" transform="translate(-1958.291 1045.724)" fill="#282776"/>
  <path id="Path_8985" data-name="Path 8985" d="M2002.871-1010.719a.666.666,0,0,1,.231-.131,7.421,7.421,0,0,0-1.266-1.578c-.01.017-.02.034-.032.05a.65.65,0,0,1-.943.136,7.149,7.149,0,0,0-1.814-1.015,6.61,6.61,0,0,0-3.135-.352,6.369,6.369,0,0,0-3.319,1.433,6.461,6.461,0,0,0-2.333,3.948,6.311,6.311,0,0,0,.654,4.228,6.451,6.451,0,0,0,4.713,3.438,6.278,6.278,0,0,0,4.806-1.024,6.446,6.446,0,0,0,2.892-4.824,6.432,6.432,0,0,0-.575-3.435A.682.682,0,0,1,2002.871-1010.719Zm-2.206,3.906a.626.626,0,0,1-.555.405c-.046,0-.093,0-.139,0q-1.563,0-3.125,0a.664.664,0,0,1-.748-.74q0-2.236,0-4.471a.658.658,0,0,1,.79-.713.646.646,0,0,1,.52.577c.006.072.006.144.006.216q0,1.8,0,3.6v.21h.206c.789,0,1.578,0,2.367,0a.682.682,0,0,1,.576.24A.621.621,0,0,1,2000.666-1006.814Z" transform="translate(-1988.832 1014.987)" fill="#fff"/>
  <path id="Path_8986" data-name="Path 8986" d="M2135.606-977.011h.206c.789,0,1.578,0,2.367,0a.685.685,0,0,1,.577.241.622.622,0,0,1,.1.667.625.625,0,0,1-.555.405c-.046,0-.093,0-.139.005q-1.562,0-3.125,0a.665.665,0,0,1-.748-.74q0-2.236,0-4.471a.658.658,0,0,1,.79-.713.647.647,0,0,1,.52.577c.006.072.006.144.006.216q0,1.8,0,3.6Z" transform="translate(-2127.023 984.278)" fill="#282776"/>
</svg>
