<svg xmlns="http://www.w3.org/2000/svg" width="34.752" height="55.292" viewBox="0 0 34.752 55.292">
  <g id="Group_277" data-name="Group 277" transform="translate(-1496.599 -3841.573)">
    <path id="Path_32" data-name="Path 32" d="M-1300.522-39.256c1.321-1.71,2.617-3.346,3.868-5.015a96.534,96.534,0,0,0,7.365-11.218,38.715,38.715,0,0,0,3.895-9.275.793.793,0,0,1,.993-.679.785.785,0,0,1,.526,1.124c-.624,1.828-1.191,3.686-1.968,5.45a76.727,76.727,0,0,1-7.976,13.409c-.119.168-.237.336-.388.551.909.25,1.791.466,2.656.736a13.391,13.391,0,0,1,4.329,2.125,8.556,8.556,0,0,1,1.45,1.411,4.012,4.012,0,0,1-.069,5.283,10.05,10.05,0,0,1-3.98,2.794,24.592,24.592,0,0,1-7.868,1.827,31.916,31.916,0,0,1-10.2-.7,14.763,14.763,0,0,1-6.7-3.192,4.435,4.435,0,0,1-1.676-3.827,4.57,4.57,0,0,1,1.485-2.839,12.279,12.279,0,0,1,4.917-2.775c.957-.317,1.939-.559,2.9-.833-1.239-1.853-2.5-3.675-3.7-5.544a55,55,0,0,1-5.991-11.844,16.956,16.956,0,0,1-1.086-6.241c.313-6.829,3.485-11.914,9.553-15.015a17.072,17.072,0,0,1,21.44,5.17c.044.061.1.117.137.179a.822.822,0,0,1-.1,1.162c-.378.3-.8.2-1.182-.222a30.923,30.923,0,0,0-2.649-2.841c-8.868-7.607-22.913-2.762-25.3,8.678a16.348,16.348,0,0,0,.872,9.131,59.864,59.864,0,0,0,6.324,12.06,124.018,124.018,0,0,0,7.855,10.684C-1300.73-39.475-1300.664-39.41-1300.522-39.256Zm-.044,7.157c1.627-.15,3.263-.24,4.88-.466a16.77,16.77,0,0,0,6.6-2.142,9.154,9.154,0,0,0,2.121-1.818,2.262,2.262,0,0,0,0-3.057,7.586,7.586,0,0,0-1.7-1.542,16.718,16.718,0,0,0-6.264-2.256.829.829,0,0,0-.622.314c-1.4,1.744-2.781,3.511-4.177,5.262-.6.754-1.061.748-1.672-.019-1.385-1.736-2.769-3.473-4.123-5.233a.706.706,0,0,0-.855-.306c-.834.221-1.684.388-2.508.64a11.521,11.521,0,0,0-4.7,2.465c-1.5,1.415-1.547,3.025,0,4.385a11.542,11.542,0,0,0,2.882,1.83A26.584,26.584,0,0,0-1300.567-32.1Z" transform="translate(2814.598 3927.227)" fill="#2d3d46" stroke="#2d3d46" stroke-width="0.5"/>
    <path id="Path_33" data-name="Path 33" d="M-1260.385-39.755a12.244,12.244,0,0,1-12.436,12.223,12.248,12.248,0,0,1-12.014-12.242,12.237,12.237,0,0,1,12.4-12.255A12.257,12.257,0,0,1-1260.385-39.755Zm-3.019,5.242a10.543,10.543,0,0,0-2.354-13.414,10.6,10.6,0,0,0-14.48.716c-3.776,3.832-3.669,9.522-1.633,12.577a32.848,32.848,0,0,1,2.792-2.162,33.1,33.1,0,0,1,3.174-1.569,4.843,4.843,0,0,1-.119-6.987,4.844,4.844,0,0,1,6.646-.167,4.9,4.9,0,0,1-.02,7.251A12.537,12.537,0,0,1-1263.4-34.513Zm-.954,1.392c-4.252-5.552-12.83-5.075-16.5.034A10.55,10.55,0,0,0-1264.359-33.121Zm-8.256-5.584a3.232,3.232,0,0,0,3.257-3.2,3.248,3.248,0,0,0-3.256-3.263,3.243,3.243,0,0,0-3.256,3.262A3.231,3.231,0,0,0-1272.615-38.705Z" transform="translate(2786.652 3898.912)" fill="#2d3d46" stroke="#2d3d46" stroke-width="0.5"/>
    <path id="Path_34" data-name="Path 34" d="M-1102.23-2.686a.8.8,0,0,1-.684.851.771.771,0,0,1-.888-.664q-.222-1.041-.433-2.084a.827.827,0,0,1,.585-1.054.809.809,0,0,1,.952.663c.135.5.24,1.018.347,1.53C-1102.3-3.189-1102.268-2.928-1102.23-2.686Z" transform="translate(2633.331 3859.541)" fill="#2d3d46" stroke="#2d3d46" stroke-width="0.5"/>
  </g>
</svg>
