<svg xmlns="http://www.w3.org/2000/svg" width="53.498" height="43.767" viewBox="0 0 53.498 43.767">
  <g id="Group_274" data-name="Group 274" transform="translate(-1486.395 -3549.614)">
    <path id="Path_21" data-name="Path 21" d="M-1985.914,211.483a5.92,5.92,0,0,1-.748,1.383,4.94,4.94,0,0,1-1.535,1.1c-2.574,1.148-5.171,2.242-7.768,3.337a.658.658,0,0,0-.474.726c.025,1.681-.031,3.364.021,5.044a7.009,7.009,0,0,1-3.016,5.963,17.815,17.815,0,0,1-8.067,3.345,26.7,26.7,0,0,1-13.625-.935,13.271,13.271,0,0,1-5.935-3.768,6.339,6.339,0,0,1-1.6-4.279c.006-1.8-.007-3.606.01-5.409a.589.589,0,0,0-.412-.661c-1.279-.523-2.544-1.077-3.882-1.648-.019.2-.044.345-.044.491q0,5.253-.006,10.506a.58.58,0,0,0,.339.611,2.451,2.451,0,0,1,.9,3.637c-.046.071-.095.14-.162.239,1,1,.792,2.315.939,3.53.17,1.392.266,2.792.391,4.189.023.259.041.519.041.778a1.588,1.588,0,0,1-1.611,1.668q-1.638.028-3.277,0a1.611,1.611,0,0,1-1.636-1.759c.183-2.278.386-4.556.637-6.827a6.424,6.424,0,0,1,.527-1.331.726.726,0,0,0,.021-.524,2.526,2.526,0,0,1,.975-3.651.692.692,0,0,0,.3-.5c.017-3.8.01-7.593.019-11.39a.486.486,0,0,0-.351-.539c-.691-.273-1.375-.565-2.055-.866a3.263,3.263,0,0,1-2.17-3.176,3.237,3.237,0,0,1,2.164-3.126q10.679-4.582,21.362-9.152a7.546,7.546,0,0,1,6.151-.012q10.708,4.577,21.413,9.161a3.771,3.771,0,0,1,2.158,2.487Zm-45.411,3.112c.256.121.376.182.5.235q7.888,3.383,15.778,6.764a6.237,6.237,0,0,0,5.134-.043q6.716-2.892,13.44-5.769,3.813-1.635,7.628-3.264a1.825,1.825,0,0,0,1.274-1.376,1.741,1.741,0,0,0-1.256-2.056q-10.557-4.529-21.114-9.057a6.38,6.38,0,0,0-5.279.03q-9.932,4.276-19.875,8.524a13.078,13.078,0,0,0-1.688.79,1.668,1.668,0,0,0-.1,2.767,18.106,18.106,0,0,0,2.731,1.242,1.471,1.471,0,0,0,.708-.064q2.274-.39,4.547-.79,5.953-1.038,11.9-2.084a.836.836,0,0,0,.381-.274,8.085,8.085,0,0,1,1.086-1.14,4.964,4.964,0,0,1,2.877-.737,5.376,5.376,0,0,1,3.478.991,1.809,1.809,0,0,1,.028,3.005,1.918,1.918,0,0,1-.655.411,13.173,13.173,0,0,1-2.558.561,5.042,5.042,0,0,1-3.783-1.121.847.847,0,0,0-.616-.083q-6.161,1.054-12.317,2.131C-2029.777,214.31-2030.483,214.442-2031.325,214.594Zm4.4,9.953a5.117,5.117,0,0,0,1.3,2.343,11.363,11.363,0,0,0,4.047,2.666,22.176,22.176,0,0,0,7.31,1.618,23.714,23.714,0,0,0,10.927-1.7,9.9,9.9,0,0,0,4.315-3.144,14.446,14.446,0,0,0,.926-1.686l-.147-.087a2.179,2.179,0,0,0-.19.159,12.263,12.263,0,0,1-3.36,2.412c-.544.279-1,.2-1.233-.206-.252-.442-.084-.882.453-1.2.566-.335,1.147-.647,1.689-1.016a5.879,5.879,0,0,0,2.743-6.448c-.194.079-.385.152-.573.233-3.5,1.5-7,2.984-10.485,4.505a8,8,0,0,1-6.686,0c-3.488-1.519-6.99-3.006-10.485-4.505-.2-.086-.4-.163-.7-.282a23.383,23.383,0,0,0,.149,2.881,5.46,5.46,0,0,0,2.408,3.39,17.556,17.556,0,0,0,9.354,3.195c1.923.148,3.87-.013,5.806-.049.544-.01.934.247.98.709a.818.818,0,0,1-.835.917,28.181,28.181,0,0,1-8.638-.314,18.31,18.31,0,0,1-7.563-3.117C-2025.91,225.45-2026.373,225.014-2026.924,224.547Zm-5.207,15.178c-.212-2.3-.393-4.559-.642-6.808a1.01,1.01,0,0,0-1.438-.815c-.568.247-.64.773-.688,1.3q-.21,2.275-.413,4.55c-.051.58-.088,1.161-.134,1.773Zm17.011-28.933c.79,1.231,4.532,1.151,5.148-.017C-2010.944,209.6-2014.212,209.613-2015.119,210.792Zm-18.694,19.6a.9.9,0,0,0,.891-.888.85.85,0,0,0-.832-.871.889.889,0,0,0-.931.84A.936.936,0,0,0-2033.812,230.388Z" transform="translate(3525.682 3351.908)" fill="#2d3d46" stroke="#2d3d46" stroke-width="0.25"/>
    <path id="Path_25" data-name="Path 25" d="M-1858.519,289.4c.907-1.179,4.175-1.189,5.148-.017C-1853.986,290.55-1857.729,290.631-1858.519,289.4Z" transform="translate(3369.081 3273.3)" fill="#2d3d46"/>
    <path id="Path_27" data-name="Path 27" d="M-1798.062,415.022c.561.011.844.2.94.572a.7.7,0,0,1-.4.908,14.314,14.314,0,0,1-1.99.546.682.682,0,0,1-.817-.555.7.7,0,0,1,.4-.908C-1799.271,415.344-1798.583,415.175-1798.062,415.022Z" transform="translate(3318.667 3163.626)" fill="#2d3d46"/>
  </g>
</svg>
