<svg xmlns="http://www.w3.org/2000/svg" width="45.445" height="39.949" viewBox="0 0 45.445 39.949">
  <g id="Group_278" data-name="Group 278" transform="translate(-1491.17 -3948.367)">
    <path id="Path_35" data-name="Path 35" d="M1529.629-597.031V-627.21a1.625,1.625,0,0,1,1.7-.987c3.728.028,7.455.012,11.183.012h.526c0-.469,0-.868,0-1.266a3.983,3.983,0,0,1,4.038-4.056q5.281-.02,10.562,0a3.981,3.981,0,0,1,4.036,4.057c0,.41,0,.819,0,1.265h.572q5.68,0,11.361,0a1.3,1.3,0,0,1,1.469,1.433q0,14.6-.015,29.2a4.068,4.068,0,0,1-.4,1.7,3.893,3.893,0,0,1-3.792,2.279q-18.151,0-36.3,0c-.355,0-.71.009-1.065,0a3.992,3.992,0,0,1-2.4-.9A4.391,4.391,0,0,1,1529.629-597.031Zm42.785-21.349-.082,0q-.985,2.955-1.97,5.91a4,4,0,0,1-4.068,2.926q-3.395,0-6.79,0h-.5c0,.472,0,.884,0,1.3a1.308,1.308,0,0,1-1.368,1.365q-5.281.007-10.562,0a1.312,1.312,0,0,1-1.379-1.4c0-.409,0-.818,0-1.261h-.531c-2.219,0-4.439-.044-6.657.013a4.173,4.173,0,0,1-4.2-3.013c-.57-1.845-1.218-3.667-1.831-5.5-.04-.118-.082-.234-.122-.351l-.068.017v.478q0,9.963,0,19.926c0,1.277.465,1.746,1.729,1.746h36.657c1.271,0,1.738-.467,1.738-1.738q0-9.985,0-19.971Zm-13.407,6.173h7.06c1.109,0,1.472-.261,1.818-1.3q1.587-4.762,3.176-9.524c.272-.818.539-1.638.81-2.461h-39.031c.036.132.059.232.091.329q1.958,5.874,3.919,11.747a1.476,1.476,0,0,0,1.7,1.21h7.141c0-.48-.005-.893,0-1.306a1.3,1.3,0,0,1,1.334-1.354q5.324-.009,10.648,0a1.3,1.3,0,0,1,1.325,1.317C1559.015-613.124,1559.007-612.7,1559.007-612.208Zm0-16c0-.366,0-.7,0-1.04a1.406,1.406,0,0,0-1.6-1.6q-3,0-5.99,0c-1.42,0-2.84-.006-4.26,0a1.33,1.33,0,0,0-1.44,1.213c-.046.465-.009.937-.009,1.428Zm-10.634,18.631h7.936v-2.612h-7.936Z" transform="translate(-38.459 4581.884)" fill="#2d3d46"/>
  </g>
</svg>
