<svg xmlns="http://www.w3.org/2000/svg" width="51.412" height="36.147" viewBox="0 0 51.412 36.147">
  <g id="Group_275" data-name="Group 275" transform="translate(-1486.711 -3650.103)">
    <path id="Path_29" data-name="Path 29" d="M-580.425,43.922a10.478,10.478,0,0,1-.5,1.348,4.282,4.282,0,0,1-3.96,2.457q-21.233.022-42.467.005a4.48,4.48,0,0,1-4.475-4.467q-.01-13.6,0-27.207a4.477,4.477,0,0,1,4.476-4.465q21.208-.008,42.416,0a4.506,4.506,0,0,1,4.4,3.487c.027.111.072.217.109.324Zm-46.135-29.306c.169.185.274.307.387.421q9.337,9.37,18.675,18.738a1.74,1.74,0,0,0,2.723.012q9.357-9.384,18.711-18.772c.109-.109.2-.232.35-.4Zm.033,30.078h40.807l-12.893-12.759c-1.306,1.3-2.671,2.655-4.031,4.014a4.77,4.77,0,0,1-6.976-.006q-1.86-1.865-3.721-3.731c-.126-.126-.259-.243-.288-.27Zm10.61-15.031-12.865-12.726V42.384Zm32.472-12.689L-596.3,29.67-583.445,42.4Z" transform="translate(2118.547 3638.513)" fill="#2d3d46"/>
  </g>
</svg>
