<svg xmlns="http://www.w3.org/2000/svg" width="26.204" height="46.225" viewBox="0 0 26.204 46.225">
  <g id="Group_276" data-name="Group 276" transform="translate(-1500.009 -3746.251)">
    <path id="Path_31" data-name="Path 31" d="M-825.538,221.374a3.985,3.985,0,0,1,2.037,1.245,3.447,3.447,0,0,1,.755,1.987c.006.12,0,.241,0,.361q0,19.523,0,39.046a3.306,3.306,0,0,1-1.936,3.24,3.442,3.442,0,0,1-1.431.328q-9.729.032-19.459.01a3.331,3.331,0,0,1-3.358-3.49q-.006-10.2,0-20.4c0-6.169.033-12.339-.02-18.508a3.568,3.568,0,0,1,2.745-3.765c.027-.006.048-.034.072-.052Zm-20.836,5.706V258.8h21.085V227.08Zm14.606,34.434h-8.124v2.447h8.124Zm-8.565-36.754h8.984v-.916h-8.984Zm12.014-1.248a.818.818,0,0,0-.842.812.822.822,0,0,0,.85.852.817.817,0,0,0,.815-.838A.806.806,0,0,0-828.319,223.512Z" transform="translate(2348.952 3524.877)" fill="#2d3d46"/>
  </g>
</svg>
