<svg xmlns="http://www.w3.org/2000/svg" width="45.938" height="45.853" viewBox="0 0 45.938 45.853">
  <g id="Group_2057" data-name="Group 2057" transform="translate(909.128 -274.436)">
    <path id="Path_8750" data-name="Path 8750" d="M-879.843,307.66l15.117,10.411v-.6q0-4.894,0-9.788a2.651,2.651,0,0,1,.013-.476.719.719,0,0,1,.755-.657.723.723,0,0,1,.751.663,2.38,2.38,0,0,1,.012.429q0,5.778,0,11.555c0,.874-.224,1.1-1.1,1.1h-43.719c-.88,0-1.1-.221-1.1-1.1q0-12.653-.008-25.306a1.3,1.3,0,0,1,.536-1.142c.707-.542,1.375-1.136,2.072-1.693a.554.554,0,0,0,.245-.6c-.434-2.377-.851-4.757-1.275-7.136-.11-.62.092-.944.71-1.065.734-.144,1.472-.271,2.211-.386a.747.747,0,0,1,.911.627.74.74,0,0,1-.64.857c-.51.113-1.026.2-1.573.3.261,1.489.513,2.943.77,4.4.466,2.646.928,5.293,1.415,7.935a1.4,1.4,0,0,0,.4.7c.434.412.916.772,1.477,1.234-.214-1.228-.405-2.334-.6-3.439q-.394-2.231-.793-4.461a.778.778,0,0,1,.448-.909,5.3,5.3,0,0,0,3.09-4.4.775.775,0,0,1,.7-.733c2.619-.461,5.236-.93,7.856-1.388a.76.76,0,0,1,.86.461,5.3,5.3,0,0,0,4.41,3.077c.524.058.693.429.774.891q.622,3.571,1.257,7.139c.7,3.976,1.4,7.954,2.122,11.926.046.252.31.465.5.739.349-.28.631-.483.879-.721a.48.48,0,0,0,.09-.375q-1.185-6.764-2.386-13.526-1.03-5.823-2.062-11.646c-.035-.2-.079-.4-.124-.624-1.854.323-3.672.637-5.488.956q-5.434.955-10.868,1.913a.785.785,0,0,1-1-.575.755.755,0,0,1,.687-.908c1.016-.195,2.036-.369,3.106-.562,0-.752,0-1.494,0-2.237s.252-1.007,1-1.007c2.28,0,4.56.008,6.84-.013a1.34,1.34,0,0,0,.762-.274c1.012-.8,2-1.634,2.992-2.455.52-.429.784-.431,1.3,0,1.01.829,2.008,1.672,3.031,2.483a1.262,1.262,0,0,0,.721.253c2.264.019,4.528.01,6.792.011.813,0,1.051.238,1.051,1.052,0,1.83,0,3.659,0,5.471.044.039.065.075.089.076.933.06,1.172.615,1.3,1.478a5.018,5.018,0,0,0,2.7,3.733c.664.37.744.51.6,1.258q-.687,3.558-1.387,7.114c-.018.092-.031.186-.071.422.664-.554,1.263-1.006,1.795-1.526.163-.16.15-.506.2-.77q1.113-5.686,2.22-11.373c.024-.124.031-.251.053-.428l-2.993-.586c-.781-.153-1.564-.3-2.343-.464a.773.773,0,0,1-.708-.9.793.793,0,0,1,1.03-.581q2.885.553,5.769,1.111c.834.162,1.015.432.855,1.255-.412,2.122-.818,4.245-1.246,6.364a.752.752,0,0,0,.305.885c.726.543,1.4,1.153,2.11,1.721a1.114,1.114,0,0,1,.445.946c-.01,3.422,0,6.844-.006,10.266,0,.628-.3.993-.788.977-.472-.015-.741-.363-.742-.975q0-4.106,0-8.213v-.643Zm13.384,11.08c-.2-.142-.307-.216-.411-.288q-9.442-6.5-18.878-13.013a.6.6,0,0,0-.823.01q-8.155,5.635-16.325,11.247a5.55,5.55,0,0,1-.72.466.7.7,0,0,1-.962-.262.7.7,0,0,1,.11-.954,2.228,2.228,0,0,1,.344-.256L-892.953,308c.151-.1.3-.214.476-.342l-15.086-12.46V318.74Zm-31.739-17.8A6.251,6.251,0,0,1-893.509,293a6.159,6.159,0,0,1,7.166,4.473,5.936,5.936,0,0,1-1.292,5.577,6.324,6.324,0,0,1-5.422,2.14l1.9,1.57c1.259-.865,2.5-1.72,3.748-2.577,1.372-.945,1.136-.939,2.512,0,.446.3.891.609,1.414.967-.172-.978-.322-1.838-.474-2.7q-1.288-7.277-2.589-14.552a.589.589,0,0,0-.37-.37,7.06,7.06,0,0,1-4.381-3.083.543.543,0,0,0-.441-.2q-3.108.522-6.208,1.094a.548.548,0,0,0-.356.332,7.037,7.037,0,0,1-3.1,4.417.542.542,0,0,0-.191.443q.73,4.277,1.5,8.547a.831.831,0,0,0,.21.457C-899.364,300-898.816,300.432-898.2,300.94Zm1.282-1.869a4.59,4.59,0,0,0,4.58,4.6,4.606,4.606,0,0,0,4.6-4.58,4.581,4.581,0,0,0-4.584-4.587A4.576,4.576,0,0,0-896.916,299.07Zm13.751-18.513h.536c1.006,0,1.021.026,1.36.964a5.251,5.251,0,0,0,3.416,3.348c.8.269.879.371.879,1.232q0,8.3,0,16.607v.591c.441-.362.784-.667,1.152-.938a.877.877,0,0,0,.388-.8q-.019-11-.009-22v-.515h-7.983Zm4.284,24.237.174.033a2.292,2.292,0,0,0,.194-.634q.016-8.758.015-17.517a.509.509,0,0,0-.368-.56,6.744,6.744,0,0,1-3.691-3.675c-.056-.128-.131-.248-.2-.372l-.136.051Zm5-18.182v14.125c.309-.251.555-.474.824-.665a1.377,1.377,0,0,0,.621-1.009c.089-.691.261-1.371.4-2.057.393-2.01.79-4.019,1.166-6.032a.676.676,0,0,0-.132-.562A7.2,7.2,0,0,1-873.877,286.612Zm-15.194-7.5-.016-.048h-7.755v1.416Zm1.393-1.65h3.048l-1.529-1.255Zm21.2,15-.5,2.582,1.81-1.5Zm-39.44.068-1.238,1.018,1.647,1.356Z" transform="translate(0)" fill="#2d3d46"/>
    <path id="Path_8751" data-name="Path 8751" d="M-765.657,562.041q2.2,0,4.4,0c.6,0,.954.287.953.763s-.352.763-.954.763q-4.4,0-8.8,0c-.6,0-.953-.287-.952-.764s.349-.761.953-.762Q-767.857,562.038-765.657,562.041Z" transform="translate(-120.501 -250.922)" fill="#2d3d46"/>
    <path id="Path_8752" data-name="Path 8752" d="M-807.7,367.178a2.267,2.267,0,0,1,2.284,2.307,2.3,2.3,0,0,1-2.3,2.264,2.311,2.311,0,0,1-2.29-2.323A2.281,2.281,0,0,1-807.7,367.178Zm-.016,3.037a.766.766,0,0,0,.767-.75.744.744,0,0,0-.751-.757.755.755,0,0,0-.772.74A.778.778,0,0,0-807.713,370.215Z" transform="translate(-86.485 -80.913)" fill="#2d3d46"/>
  </g>
</svg>
