<svg xmlns="http://www.w3.org/2000/svg" width="55.102" height="51.503" viewBox="0 0 55.102 51.503">
  <g id="Group_280" data-name="Group 280" transform="translate(-1485.204 -4143.175)">
    <path id="Path_1417" data-name="Path 1417" d="M-925.229-1146.335a1.357,1.357,0,0,1,1.445-.784c.588.033,1.181-.007,1.77.016a1.049,1.049,0,0,1,1.114,1.054,1.06,1.06,0,0,1-1.084,1.093c-.714.032-1.43.013-2.145.006a1.351,1.351,0,0,1-1.1-.739Z" transform="translate(2410.433 5316.756)" fill="#2d3d46"/>
    <path id="Path_1418" data-name="Path 1418" d="M-860.423-1227.623c4.268,0,8.536.021,12.8-.013a2.951,2.951,0,0,1,2.727,1.47c1.863,2.912,3.753,5.807,5.628,8.711a2.556,2.556,0,0,1-.261,3.476q-9.41,10.564-18.824,21.124a2.558,2.558,0,0,1-4.232-.007q-9.395-10.541-18.787-21.086a2.57,2.57,0,0,1-.282-3.517c1.891-2.916,3.8-5.822,5.675-8.746a2.872,2.872,0,0,1,2.64-1.424C-869.03-1227.606-864.727-1227.623-860.423-1227.623Zm2.107,31.308.1.056,16.317-18.319h-10.786Zm-4.284.171c-.035-.218-.037-.271-.052-.32q-2.729-8.87-5.454-17.74a.488.488,0,0,0-.558-.409c-3.3.013-6.6.008-9.9.008h-.479Zm-3.361-18.438,5.439,17.65.131-.017,5.432-17.634Zm-3.463-2.224-5.021-7.763-5.044,7.763Zm28,0-5.022-7.761-5.019,7.761Zm-7.054-8.62h-10l5,7.727Zm-23.946-.022,5,7.73,5-7.73Zm16.945,8.653-4.978-7.691-4.973,7.691Z" transform="translate(2373.217 5386.415)" fill="#2d3d46"/>
    <path id="Path_1419" data-name="Path 1419" d="M-726.581-1338.806c0,1.094.008,2.187,0,3.281-.008.8-.412,1.279-1.06,1.287s-1.1-.505-1.105-1.312q-.009-3.308,0-6.615a1.135,1.135,0,0,1,.807-1.194,1.032,1.032,0,0,1,1.22.546,2.073,2.073,0,0,1,.134.781C-726.573-1340.957-726.581-1339.882-726.581-1338.806Z" transform="translate(2240.443 5486.57)" fill="#2d3d46"/>
    <path id="Path_1420" data-name="Path 1420" d="M-614.671-1280.029c-.282-.215-.674-.375-.813-.658a1.984,1.984,0,0,1-.02-1.053c.02-.151.2-.292.32-.417,1.072-1.078,2.151-2.15,3.222-3.229a1.2,1.2,0,0,1,1.3-.411,1.05,1.05,0,0,1,.405,1.755c-1.169,1.232-2.387,2.419-3.6,3.6A3.419,3.419,0,0,1-614.671-1280.029Z" transform="translate(2142.513 5436.789)" fill="#2d3d46"/>
    <path id="Path_1421" data-name="Path 1421" d="M-866.561-1286.994a4.885,4.885,0,0,1,.922.536q1.732,1.682,3.418,3.41a1.078,1.078,0,0,1,.079,1.579,1.071,1.071,0,0,1-1.617-.07c-1.148-1.128-2.282-2.27-3.415-3.413a.986.986,0,0,1-.271-1.258A4.2,4.2,0,0,1-866.561-1286.994Z" transform="translate(2360.552 5437.771)" fill="#2d3d46"/>
    <path id="Path_1422" data-name="Path 1422" d="M-546.337-1146.986c.393,0,.788-.025,1.179.006a1.03,1.03,0,0,1,.973.967.947.947,0,0,1-.76,1.077,16.94,16.94,0,0,1-2.821-.007.908.908,0,0,1-.729-1.086,1.023,1.023,0,0,1,.924-.953,1.2,1.2,0,0,1,.16-.017c.358,0,.715,0,1.073,0Z" transform="translate(2084.487 5316.649)" fill="#2d3d46"/>
    <path id="Path_1423" data-name="Path 1423" d="M-726.513-1263.175a1.082,1.082,0,0,1-1.092,1.017,1.127,1.127,0,0,1-1.045-1.141,1.089,1.089,0,0,1,1.113-1A1.041,1.041,0,0,1-726.513-1263.175Z" transform="translate(2240.355 5418.137)" fill="#2d3d46"/>
  </g>
</svg>
